# MagicaVoxel @ ephtracy

# material
mtllib Pilier2.mtl
usemtl palette

# normals
vn -1 0 0
vn 1 0 0
vn 0 0 1
vn 0 0 -1
vn 0 -1 0
vn 0 1 0

# texcoords
vt 0.943359 0.5
vt 0.947266 0.5
vt 0.951172 0.5

# verts
v -7 0 7
v -7 0 5
v -7 0 -5
v -7 0 -7
v -7 49 7
v -7 49 5
v -7 49 -5
v -7 49 -7
v -6 0 5
v -6 0 3
v -6 0 -3
v -6 0 -5
v -6 5 4
v -6 5 3
v -6 5 -3
v -6 5 -4
v -6 9 4
v -6 9 3
v -6 9 -3
v -6 9 -4
v -6 13 4
v -6 13 3
v -6 13 -3
v -6 13 -4
v -6 17 4
v -6 17 3
v -6 17 -3
v -6 17 -4
v -6 21 4
v -6 21 3
v -6 21 -3
v -6 21 -4
v -6 25 4
v -6 25 3
v -6 25 -3
v -6 25 -4
v -6 29 4
v -6 29 3
v -6 29 -3
v -6 29 -4
v -6 33 4
v -6 33 3
v -6 33 -3
v -6 33 -4
v -6 37 4
v -6 37 3
v -6 37 -3
v -6 37 -4
v -6 41 4
v -6 41 3
v -6 41 -3
v -6 41 -4
v -6 45 4
v -6 45 3
v -6 45 -3
v -6 45 -4
v -6 49 5
v -6 49 4
v -6 49 -4
v -6 49 -5
v 5 0 7
v 5 0 6
v 5 0 -6
v 5 0 -7
v 5 49 7
v 5 49 6
v 5 49 -6
v 5 49 -7
v -5 0 7
v -5 0 6
v -5 0 -6
v -5 0 -7
v -5 49 7
v -5 49 6
v -5 49 -6
v -5 49 -7
v 6 0 5
v 6 0 3
v 6 0 -3
v 6 0 -5
v 6 5 4
v 6 5 3
v 6 5 -3
v 6 5 -4
v 6 9 4
v 6 9 3
v 6 9 -3
v 6 9 -4
v 6 13 4
v 6 13 3
v 6 13 -3
v 6 13 -4
v 6 17 4
v 6 17 3
v 6 17 -3
v 6 17 -4
v 6 21 4
v 6 21 3
v 6 21 -3
v 6 21 -4
v 6 25 4
v 6 25 3
v 6 25 -3
v 6 25 -4
v 6 29 4
v 6 29 3
v 6 29 -3
v 6 29 -4
v 6 33 4
v 6 33 3
v 6 33 -3
v 6 33 -4
v 6 37 4
v 6 37 3
v 6 37 -3
v 6 37 -4
v 6 41 4
v 6 41 3
v 6 41 -3
v 6 41 -4
v 6 45 4
v 6 45 3
v 6 45 -3
v 6 45 -4
v 6 48 4
v 6 48 3
v 6 48 -3
v 6 48 -4
v 6 49 5
v 6 49 3
v 6 49 -3
v 6 49 -5
v 7 0 7
v 7 0 5
v 7 0 -5
v 7 0 -7
v 7 49 7
v 7 49 5
v 7 49 -5
v 7 49 -7
v -7 0 7
v -7 49 7
v -5 0 7
v -5 49 7
v 5 0 7
v 5 49 7
v 7 0 7
v 7 49 7
v -5 0 6
v -5 49 6
v -4 5 6
v -4 9 6
v -4 13 6
v -4 17 6
v -4 21 6
v -4 25 6
v -4 29 6
v -4 33 6
v -4 37 6
v -4 41 6
v -4 45 6
v -4 49 6
v -3 0 6
v -3 5 6
v -3 9 6
v -3 13 6
v -3 17 6
v -3 21 6
v -3 25 6
v -3 29 6
v -3 33 6
v -3 37 6
v -3 41 6
v -3 45 6
v 3 0 6
v 3 5 6
v 3 9 6
v 3 13 6
v 3 17 6
v 3 21 6
v 3 25 6
v 3 29 6
v 3 33 6
v 3 37 6
v 3 41 6
v 3 45 6
v 4 5 6
v 4 9 6
v 4 13 6
v 4 17 6
v 4 21 6
v 4 25 6
v 4 29 6
v 4 33 6
v 4 37 6
v 4 41 6
v 4 45 6
v 4 49 6
v 5 0 6
v 5 49 6
v -7 0 -5
v -7 49 -5
v -6 0 -5
v -6 49 -5
v 6 0 -5
v 6 49 -5
v 7 0 -5
v 7 49 -5
v -7 0 5
v -7 49 5
v -6 0 5
v -6 49 5
v 6 0 5
v 6 49 5
v 7 0 5
v 7 49 5
v -5 0 -6
v -5 49 -6
v -4 5 -6
v -4 9 -6
v -4 13 -6
v -4 17 -6
v -4 21 -6
v -4 25 -6
v -4 29 -6
v -4 33 -6
v -4 37 -6
v -4 41 -6
v -4 45 -6
v -4 49 -6
v -3 0 -6
v -3 5 -6
v -3 9 -6
v -3 13 -6
v -3 17 -6
v -3 21 -6
v -3 25 -6
v -3 29 -6
v -3 33 -6
v -3 37 -6
v -3 41 -6
v -3 45 -6
v 3 0 -6
v 3 5 -6
v 3 9 -6
v 3 13 -6
v 3 17 -6
v 3 21 -6
v 3 25 -6
v 3 29 -6
v 3 33 -6
v 3 37 -6
v 3 41 -6
v 3 45 -6
v 4 5 -6
v 4 9 -6
v 4 13 -6
v 4 17 -6
v 4 21 -6
v 4 25 -6
v 4 29 -6
v 4 33 -6
v 4 37 -6
v 4 41 -6
v 4 45 -6
v 4 49 -6
v 5 0 -6
v 5 49 -6
v -7 0 -7
v -7 49 -7
v -5 0 -7
v -5 49 -7
v 5 0 -7
v 5 49 -7
v 7 0 -7
v 7 49 -7
v -7 0 7
v -5 0 7
v 5 0 7
v 7 0 7
v -6 0 6
v -5 0 6
v -3 0 6
v 3 0 6
v 5 0 6
v 6 0 6
v -7 0 5
v -6 0 5
v -5 0 5
v -3 0 5
v 3 0 5
v 5 0 5
v 6 0 5
v 7 0 5
v -6 0 3
v -5 0 3
v 5 0 3
v 6 0 3
v -6 0 -3
v -5 0 -3
v 5 0 -3
v 6 0 -3
v -7 0 -5
v -6 0 -5
v -5 0 -5
v -3 0 -5
v 3 0 -5
v 5 0 -5
v 6 0 -5
v 7 0 -5
v -6 0 -6
v -5 0 -6
v -3 0 -6
v 3 0 -6
v 5 0 -6
v 6 0 -6
v -7 0 -7
v -5 0 -7
v 5 0 -7
v 7 0 -7
v -7 49 7
v -5 49 7
v 5 49 7
v 7 49 7
v -6 49 6
v -5 49 6
v -4 49 6
v 4 49 6
v 5 49 6
v 6 49 6
v -7 49 5
v -6 49 5
v -5 49 5
v -4 49 5
v 4 49 5
v 5 49 5
v 6 49 5
v 7 49 5
v -6 49 4
v -5 49 4
v 5 49 3
v 6 49 3
v 5 49 -3
v 6 49 -3
v -6 49 -4
v -5 49 -4
v -7 49 -5
v -6 49 -5
v -5 49 -5
v -4 49 -5
v 4 49 -5
v 5 49 -5
v 6 49 -5
v 7 49 -5
v -6 49 -6
v -5 49 -6
v -4 49 -6
v 4 49 -6
v 5 49 -6
v 6 49 -6
v -7 49 -7
v -5 49 -7
v 5 49 -7
v 7 49 -7

# faces
f 5/1/1 2/1/1 1/1/1
f 6/1/1 2/1/1 5/1/1
f 7/1/1 4/1/1 3/1/1
f 8/1/1 4/1/1 7/1/1
f 13/2/1 10/2/1 9/2/1
f 14/3/1 11/3/1 10/3/1
f 14/2/1 10/2/1 13/2/1
f 15/2/1 12/2/1 11/2/1
f 15/3/1 11/3/1 14/3/1
f 16/2/1 12/2/1 15/2/1
f 17/3/1 14/3/1 13/3/1
f 17/2/1 13/2/1 9/2/1
f 17/3/1 16/3/1 15/3/1
f 17/3/1 15/3/1 14/3/1
f 18/3/1 16/3/1 17/3/1
f 19/3/1 16/3/1 18/3/1
f 20/2/1 12/2/1 16/2/1
f 20/3/1 16/3/1 19/3/1
f 21/2/1 17/2/1 9/2/1
f 21/2/1 18/2/1 17/2/1
f 22/3/1 19/3/1 18/3/1
f 22/2/1 18/2/1 21/2/1
f 23/2/1 20/2/1 19/2/1
f 23/3/1 19/3/1 22/3/1
f 24/2/1 12/2/1 20/2/1
f 24/2/1 20/2/1 23/2/1
f 25/2/1 21/2/1 9/2/1
f 25/3/1 23/3/1 22/3/1
f 25/3/1 24/3/1 23/3/1
f 25/3/1 22/3/1 21/3/1
f 26/3/1 24/3/1 25/3/1
f 27/3/1 24/3/1 26/3/1
f 28/2/1 12/2/1 24/2/1
f 28/3/1 24/3/1 27/3/1
f 29/2/1 25/2/1 9/2/1
f 29/2/1 26/2/1 25/2/1
f 30/3/1 27/3/1 26/3/1
f 30/2/1 26/2/1 29/2/1
f 31/2/1 28/2/1 27/2/1
f 31/3/1 27/3/1 30/3/1
f 32/2/1 12/2/1 28/2/1
f 32/2/1 28/2/1 31/2/1
f 33/2/1 29/2/1 9/2/1
f 33/3/1 31/3/1 30/3/1
f 33/3/1 32/3/1 31/3/1
f 33/3/1 30/3/1 29/3/1
f 34/3/1 32/3/1 33/3/1
f 35/3/1 32/3/1 34/3/1
f 36/2/1 12/2/1 32/2/1
f 36/3/1 32/3/1 35/3/1
f 37/2/1 33/2/1 9/2/1
f 37/2/1 34/2/1 33/2/1
f 38/3/1 35/3/1 34/3/1
f 38/2/1 34/2/1 37/2/1
f 39/2/1 36/2/1 35/2/1
f 39/3/1 35/3/1 38/3/1
f 40/2/1 12/2/1 36/2/1
f 40/2/1 36/2/1 39/2/1
f 41/2/1 37/2/1 9/2/1
f 41/3/1 39/3/1 38/3/1
f 41/3/1 40/3/1 39/3/1
f 41/3/1 38/3/1 37/3/1
f 42/3/1 40/3/1 41/3/1
f 43/3/1 40/3/1 42/3/1
f 44/2/1 12/2/1 40/2/1
f 44/3/1 40/3/1 43/3/1
f 45/2/1 41/2/1 9/2/1
f 45/2/1 42/2/1 41/2/1
f 46/3/1 43/3/1 42/3/1
f 46/2/1 42/2/1 45/2/1
f 47/2/1 44/2/1 43/2/1
f 47/3/1 43/3/1 46/3/1
f 48/2/1 12/2/1 44/2/1
f 48/2/1 44/2/1 47/2/1
f 49/2/1 45/2/1 9/2/1
f 49/3/1 47/3/1 46/3/1
f 49/3/1 48/3/1 47/3/1
f 49/3/1 46/3/1 45/3/1
f 50/3/1 48/3/1 49/3/1
f 51/3/1 48/3/1 50/3/1
f 52/2/1 12/2/1 48/2/1
f 52/3/1 48/3/1 51/3/1
f 53/2/1 49/2/1 9/2/1
f 53/2/1 50/2/1 49/2/1
f 54/3/1 51/3/1 50/3/1
f 54/2/1 50/2/1 53/2/1
f 55/2/1 52/2/1 51/2/1
f 55/3/1 51/3/1 54/3/1
f 56/2/1 12/2/1 52/2/1
f 56/2/1 52/2/1 55/2/1
f 57/2/1 53/2/1 9/2/1
f 58/3/1 55/3/1 54/3/1
f 58/2/1 53/2/1 57/2/1
f 58/3/1 54/3/1 53/3/1
f 58/3/1 56/3/1 55/3/1
f 59/2/1 12/2/1 56/2/1
f 59/3/1 56/3/1 58/3/1
f 60/2/1 12/2/1 59/2/1
f 65/1/1 62/1/1 61/1/1
f 66/1/1 62/1/1 65/1/1
f 67/1/1 64/1/1 63/1/1
f 68/1/1 64/1/1 67/1/1
f 69/1/2 70/1/2 73/1/2
f 73/1/2 70/1/2 74/1/2
f 71/1/2 72/1/2 75/1/2
f 75/1/2 72/1/2 76/1/2
f 77/2/2 78/2/2 81/2/2
f 78/3/2 79/3/2 82/3/2
f 81/2/2 78/2/2 82/2/2
f 79/2/2 80/2/2 83/2/2
f 82/3/2 79/3/2 83/3/2
f 83/2/2 80/2/2 84/2/2
f 81/3/2 82/3/2 85/3/2
f 77/2/2 81/2/2 85/2/2
f 83/3/2 84/3/2 85/3/2
f 82/3/2 83/3/2 85/3/2
f 85/3/2 84/3/2 86/3/2
f 86/3/2 84/3/2 87/3/2
f 84/2/2 80/2/2 88/2/2
f 87/3/2 84/3/2 88/3/2
f 77/2/2 85/2/2 89/2/2
f 85/2/2 86/2/2 89/2/2
f 86/3/2 87/3/2 90/3/2
f 89/2/2 86/2/2 90/2/2
f 87/2/2 88/2/2 91/2/2
f 90/3/2 87/3/2 91/3/2
f 88/2/2 80/2/2 92/2/2
f 91/2/2 88/2/2 92/2/2
f 77/2/2 89/2/2 93/2/2
f 90/3/2 91/3/2 93/3/2
f 91/3/2 92/3/2 93/3/2
f 89/3/2 90/3/2 93/3/2
f 93/3/2 92/3/2 94/3/2
f 94/3/2 92/3/2 95/3/2
f 92/2/2 80/2/2 96/2/2
f 95/3/2 92/3/2 96/3/2
f 77/2/2 93/2/2 97/2/2
f 93/2/2 94/2/2 97/2/2
f 94/3/2 95/3/2 98/3/2
f 97/2/2 94/2/2 98/2/2
f 95/2/2 96/2/2 99/2/2
f 98/3/2 95/3/2 99/3/2
f 96/2/2 80/2/2 100/2/2
f 99/2/2 96/2/2 100/2/2
f 77/2/2 97/2/2 101/2/2
f 98/3/2 99/3/2 101/3/2
f 99/3/2 100/3/2 101/3/2
f 97/3/2 98/3/2 101/3/2
f 101/3/2 100/3/2 102/3/2
f 102/3/2 100/3/2 103/3/2
f 100/2/2 80/2/2 104/2/2
f 103/3/2 100/3/2 104/3/2
f 77/2/2 101/2/2 105/2/2
f 101/2/2 102/2/2 105/2/2
f 102/3/2 103/3/2 106/3/2
f 105/2/2 102/2/2 106/2/2
f 103/2/2 104/2/2 107/2/2
f 106/3/2 103/3/2 107/3/2
f 104/2/2 80/2/2 108/2/2
f 107/2/2 104/2/2 108/2/2
f 77/2/2 105/2/2 109/2/2
f 106/3/2 107/3/2 109/3/2
f 107/3/2 108/3/2 109/3/2
f 105/3/2 106/3/2 109/3/2
f 109/3/2 108/3/2 110/3/2
f 110/3/2 108/3/2 111/3/2
f 108/2/2 80/2/2 112/2/2
f 111/3/2 108/3/2 112/3/2
f 77/2/2 109/2/2 113/2/2
f 109/2/2 110/2/2 113/2/2
f 110/3/2 111/3/2 114/3/2
f 113/2/2 110/2/2 114/2/2
f 111/2/2 112/2/2 115/2/2
f 114/3/2 111/3/2 115/3/2
f 112/2/2 80/2/2 116/2/2
f 115/2/2 112/2/2 116/2/2
f 77/2/2 113/2/2 117/2/2
f 114/3/2 115/3/2 117/3/2
f 115/3/2 116/3/2 117/3/2
f 113/3/2 114/3/2 117/3/2
f 117/3/2 116/3/2 118/3/2
f 118/3/2 116/3/2 119/3/2
f 116/2/2 80/2/2 120/2/2
f 119/3/2 116/3/2 120/3/2
f 77/2/2 117/2/2 121/2/2
f 117/2/2 118/2/2 121/2/2
f 118/3/2 119/3/2 122/3/2
f 121/2/2 118/2/2 122/2/2
f 119/2/2 120/2/2 123/2/2
f 122/3/2 119/3/2 123/3/2
f 120/2/2 80/2/2 124/2/2
f 123/2/2 120/2/2 124/2/2
f 77/2/2 121/2/2 125/2/2
f 122/3/2 123/3/2 125/3/2
f 123/3/2 124/3/2 125/3/2
f 121/3/2 122/3/2 125/3/2
f 125/3/2 124/3/2 126/3/2
f 126/3/2 124/3/2 127/3/2
f 124/2/2 80/2/2 128/2/2
f 127/3/2 124/3/2 128/3/2
f 77/2/2 125/2/2 129/2/2
f 125/2/2 126/2/2 129/2/2
f 126/3/2 127/3/2 130/3/2
f 129/2/2 126/2/2 130/2/2
f 127/2/2 128/2/2 131/2/2
f 130/3/2 127/3/2 131/3/2
f 128/2/2 80/2/2 132/2/2
f 131/2/2 128/2/2 132/2/2
f 133/1/2 134/1/2 137/1/2
f 137/1/2 134/1/2 138/1/2
f 135/1/2 136/1/2 139/1/2
f 139/1/2 136/1/2 140/1/2
f 143/1/3 142/1/3 141/1/3
f 144/1/3 142/1/3 143/1/3
f 147/1/3 146/1/3 145/1/3
f 148/1/3 146/1/3 147/1/3
f 151/2/3 150/2/3 149/2/3
f 152/2/3 150/2/3 151/2/3
f 153/2/3 150/2/3 152/2/3
f 154/2/3 150/2/3 153/2/3
f 155/2/3 150/2/3 154/2/3
f 156/2/3 150/2/3 155/2/3
f 157/2/3 150/2/3 156/2/3
f 158/2/3 150/2/3 157/2/3
f 159/2/3 150/2/3 158/2/3
f 160/2/3 150/2/3 159/2/3
f 161/2/3 150/2/3 160/2/3
f 162/2/3 150/2/3 161/2/3
f 163/2/3 151/2/3 149/2/3
f 164/3/3 152/3/3 151/3/3
f 164/2/3 151/2/3 163/2/3
f 165/2/3 153/2/3 152/2/3
f 165/3/3 152/3/3 164/3/3
f 166/3/3 154/3/3 153/3/3
f 166/2/3 153/2/3 165/2/3
f 167/2/3 155/2/3 154/2/3
f 167/3/3 154/3/3 166/3/3
f 168/3/3 156/3/3 155/3/3
f 168/2/3 155/2/3 167/2/3
f 169/2/3 157/2/3 156/2/3
f 169/3/3 156/3/3 168/3/3
f 170/3/3 158/3/3 157/3/3
f 170/2/3 157/2/3 169/2/3
f 171/2/3 159/2/3 158/2/3
f 171/3/3 158/3/3 170/3/3
f 172/3/3 160/3/3 159/3/3
f 172/2/3 159/2/3 171/2/3
f 173/2/3 161/2/3 160/2/3
f 173/3/3 160/3/3 172/3/3
f 174/3/3 162/3/3 161/3/3
f 174/2/3 161/2/3 173/2/3
f 175/3/3 164/3/3 163/3/3
f 175/3/3 165/3/3 164/3/3
f 175/3/3 174/3/3 173/3/3
f 175/3/3 173/3/3 172/3/3
f 175/3/3 172/3/3 171/3/3
f 175/3/3 171/3/3 170/3/3
f 175/3/3 170/3/3 169/3/3
f 175/3/3 169/3/3 168/3/3
f 175/3/3 168/3/3 167/3/3
f 175/3/3 167/3/3 166/3/3
f 175/3/3 166/3/3 165/3/3
f 176/3/3 174/3/3 175/3/3
f 177/3/3 174/3/3 176/3/3
f 178/3/3 174/3/3 177/3/3
f 179/3/3 174/3/3 178/3/3
f 180/3/3 174/3/3 179/3/3
f 181/3/3 174/3/3 180/3/3
f 182/3/3 174/3/3 181/3/3
f 183/3/3 174/3/3 182/3/3
f 184/3/3 174/3/3 183/3/3
f 185/3/3 174/3/3 184/3/3
f 186/3/3 162/3/3 174/3/3
f 186/3/3 174/3/3 185/3/3
f 187/2/3 176/2/3 175/2/3
f 187/3/3 177/3/3 176/3/3
f 188/2/3 178/2/3 177/2/3
f 188/3/3 177/3/3 187/3/3
f 189/3/3 179/3/3 178/3/3
f 189/2/3 178/2/3 188/2/3
f 190/2/3 180/2/3 179/2/3
f 190/3/3 179/3/3 189/3/3
f 191/3/3 181/3/3 180/3/3
f 191/2/3 180/2/3 190/2/3
f 192/2/3 182/2/3 181/2/3
f 192/3/3 181/3/3 191/3/3
f 193/3/3 183/3/3 182/3/3
f 193/2/3 182/2/3 192/2/3
f 194/2/3 184/2/3 183/2/3
f 194/3/3 183/3/3 193/3/3
f 195/3/3 185/3/3 184/3/3
f 195/2/3 184/2/3 194/2/3
f 196/2/3 186/2/3 185/2/3
f 196/3/3 185/3/3 195/3/3
f 197/3/3 162/3/3 186/3/3
f 197/2/3 186/2/3 196/2/3
f 198/3/3 162/3/3 197/3/3
f 199/2/3 194/2/3 193/2/3
f 199/2/3 196/2/3 195/2/3
f 199/2/3 198/2/3 197/2/3
f 199/2/3 197/2/3 196/2/3
f 199/2/3 193/2/3 192/2/3
f 199/2/3 192/2/3 191/2/3
f 199/2/3 191/2/3 190/2/3
f 199/2/3 190/2/3 189/2/3
f 199/2/3 189/2/3 188/2/3
f 199/2/3 188/2/3 187/2/3
f 199/2/3 187/2/3 175/2/3
f 199/2/3 195/2/3 194/2/3
f 200/2/3 198/2/3 199/2/3
f 203/1/3 202/1/3 201/1/3
f 204/1/3 202/1/3 203/1/3
f 207/1/3 206/1/3 205/1/3
f 208/1/3 206/1/3 207/1/3
f 209/1/4 210/1/4 211/1/4
f 211/1/4 210/1/4 212/1/4
f 213/1/4 214/1/4 215/1/4
f 215/1/4 214/1/4 216/1/4
f 217/2/4 218/2/4 219/2/4
f 219/2/4 218/2/4 220/2/4
f 220/2/4 218/2/4 221/2/4
f 221/2/4 218/2/4 222/2/4
f 222/2/4 218/2/4 223/2/4
f 223/2/4 218/2/4 224/2/4
f 224/2/4 218/2/4 225/2/4
f 225/2/4 218/2/4 226/2/4
f 226/2/4 218/2/4 227/2/4
f 227/2/4 218/2/4 228/2/4
f 228/2/4 218/2/4 229/2/4
f 229/2/4 218/2/4 230/2/4
f 217/2/4 219/2/4 231/2/4
f 219/3/4 220/3/4 232/3/4
f 231/2/4 219/2/4 232/2/4
f 220/2/4 221/2/4 233/2/4
f 232/3/4 220/3/4 233/3/4
f 221/3/4 222/3/4 234/3/4
f 233/2/4 221/2/4 234/2/4
f 222/2/4 223/2/4 235/2/4
f 234/3/4 222/3/4 235/3/4
f 223/3/4 224/3/4 236/3/4
f 235/2/4 223/2/4 236/2/4
f 224/2/4 225/2/4 237/2/4
f 236/3/4 224/3/4 237/3/4
f 225/3/4 226/3/4 238/3/4
f 237/2/4 225/2/4 238/2/4
f 226/2/4 227/2/4 239/2/4
f 238/3/4 226/3/4 239/3/4
f 227/3/4 228/3/4 240/3/4
f 239/2/4 227/2/4 240/2/4
f 228/2/4 229/2/4 241/2/4
f 240/3/4 228/3/4 241/3/4
f 229/3/4 230/3/4 242/3/4
f 241/2/4 229/2/4 242/2/4
f 231/3/4 232/3/4 243/3/4
f 232/3/4 233/3/4 243/3/4
f 241/3/4 242/3/4 243/3/4
f 240/3/4 241/3/4 243/3/4
f 239/3/4 240/3/4 243/3/4
f 238/3/4 239/3/4 243/3/4
f 237/3/4 238/3/4 243/3/4
f 236/3/4 237/3/4 243/3/4
f 235/3/4 236/3/4 243/3/4
f 234/3/4 235/3/4 243/3/4
f 233/3/4 234/3/4 243/3/4
f 243/3/4 242/3/4 244/3/4
f 244/3/4 242/3/4 245/3/4
f 245/3/4 242/3/4 246/3/4
f 246/3/4 242/3/4 247/3/4
f 247/3/4 242/3/4 248/3/4
f 248/3/4 242/3/4 249/3/4
f 249/3/4 242/3/4 250/3/4
f 250/3/4 242/3/4 251/3/4
f 251/3/4 242/3/4 252/3/4
f 252/3/4 242/3/4 253/3/4
f 242/3/4 230/3/4 254/3/4
f 253/3/4 242/3/4 254/3/4
f 243/2/4 244/2/4 255/2/4
f 244/3/4 245/3/4 255/3/4
f 245/2/4 246/2/4 256/2/4
f 255/3/4 245/3/4 256/3/4
f 246/3/4 247/3/4 257/3/4
f 256/2/4 246/2/4 257/2/4
f 247/2/4 248/2/4 258/2/4
f 257/3/4 247/3/4 258/3/4
f 248/3/4 249/3/4 259/3/4
f 258/2/4 248/2/4 259/2/4
f 249/2/4 250/2/4 260/2/4
f 259/3/4 249/3/4 260/3/4
f 250/3/4 251/3/4 261/3/4
f 260/2/4 250/2/4 261/2/4
f 251/2/4 252/2/4 262/2/4
f 261/3/4 251/3/4 262/3/4
f 252/3/4 253/3/4 263/3/4
f 262/2/4 252/2/4 263/2/4
f 253/2/4 254/2/4 264/2/4
f 263/3/4 253/3/4 264/3/4
f 254/3/4 230/3/4 265/3/4
f 264/2/4 254/2/4 265/2/4
f 265/3/4 230/3/4 266/3/4
f 261/2/4 262/2/4 267/2/4
f 263/2/4 264/2/4 267/2/4
f 265/2/4 266/2/4 267/2/4
f 264/2/4 265/2/4 267/2/4
f 260/2/4 261/2/4 267/2/4
f 259/2/4 260/2/4 267/2/4
f 258/2/4 259/2/4 267/2/4
f 257/2/4 258/2/4 267/2/4
f 256/2/4 257/2/4 267/2/4
f 255/2/4 256/2/4 267/2/4
f 243/2/4 255/2/4 267/2/4
f 262/2/4 263/2/4 267/2/4
f 267/2/4 266/2/4 268/2/4
f 269/1/4 270/1/4 271/1/4
f 271/1/4 270/1/4 272/1/4
f 273/1/4 274/1/4 275/1/4
f 275/1/4 274/1/4 276/1/4
f 281/1/5 278/1/5 277/1/5
f 282/1/5 278/1/5 281/1/5
f 285/1/5 280/1/5 279/1/5
f 286/1/5 280/1/5 285/1/5
f 287/1/5 281/1/5 277/1/5
f 288/3/5 282/3/5 281/3/5
f 288/1/5 281/1/5 287/1/5
f 289/2/5 283/2/5 282/2/5
f 289/3/5 282/3/5 288/3/5
f 290/3/5 284/3/5 283/3/5
f 290/2/5 283/2/5 289/2/5
f 291/2/5 285/2/5 284/2/5
f 291/3/5 284/3/5 290/3/5
f 292/3/5 286/3/5 285/3/5
f 292/2/5 285/2/5 291/2/5
f 293/1/5 280/1/5 286/1/5
f 293/3/5 286/3/5 292/3/5
f 294/1/5 280/1/5 293/1/5
f 295/2/5 289/2/5 288/2/5
f 296/3/5 292/3/5 291/3/5
f 296/2/5 289/2/5 295/2/5
f 296/3/5 290/3/5 289/3/5
f 296/3/5 291/3/5 290/3/5
f 297/2/5 293/2/5 292/2/5
f 297/3/5 292/3/5 296/3/5
f 298/2/5 293/2/5 297/2/5
f 299/3/5 296/3/5 295/3/5
f 299/3/5 297/3/5 296/3/5
f 299/3/5 298/3/5 297/3/5
f 300/3/5 298/3/5 299/3/5
f 301/3/5 298/3/5 300/3/5
f 302/3/5 298/3/5 301/3/5
f 304/2/5 300/2/5 299/2/5
f 305/3/5 301/3/5 300/3/5
f 305/2/5 300/2/5 304/2/5
f 306/3/5 301/3/5 305/3/5
f 307/3/5 301/3/5 306/3/5
f 308/2/5 302/2/5 301/2/5
f 308/3/5 301/3/5 307/3/5
f 309/2/5 302/2/5 308/2/5
f 311/1/5 304/1/5 303/1/5
f 311/3/5 305/3/5 304/3/5
f 312/2/5 306/2/5 305/2/5
f 312/3/5 305/3/5 311/3/5
f 313/3/5 307/3/5 306/3/5
f 313/2/5 306/2/5 312/2/5
f 314/2/5 308/2/5 307/2/5
f 314/3/5 307/3/5 313/3/5
f 315/3/5 309/3/5 308/3/5
f 315/2/5 308/2/5 314/2/5
f 316/1/5 310/1/5 309/1/5
f 316/3/5 309/3/5 315/3/5
f 317/1/5 311/1/5 303/1/5
f 317/1/5 312/1/5 311/1/5
f 318/1/5 312/1/5 317/1/5
f 319/1/5 316/1/5 315/1/5
f 320/1/5 310/1/5 316/1/5
f 320/1/5 316/1/5 319/1/5
f 321/1/6 322/1/6 325/1/6
f 325/1/6 322/1/6 326/1/6
f 323/1/6 324/1/6 329/1/6
f 329/1/6 324/1/6 330/1/6
f 321/1/6 325/1/6 331/1/6
f 325/3/6 326/3/6 332/3/6
f 331/1/6 325/1/6 332/1/6
f 326/2/6 327/2/6 333/2/6
f 332/3/6 326/3/6 333/3/6
f 327/3/6 328/3/6 334/3/6
f 333/2/6 327/2/6 334/2/6
f 328/2/6 329/2/6 335/2/6
f 334/3/6 328/3/6 335/3/6
f 329/3/6 330/3/6 336/3/6
f 335/2/6 329/2/6 336/2/6
f 330/1/6 324/1/6 337/1/6
f 336/3/6 330/3/6 337/3/6
f 337/1/6 324/1/6 338/1/6
f 332/2/6 333/2/6 339/2/6
f 335/3/6 336/3/6 340/3/6
f 339/2/6 333/2/6 340/2/6
f 333/3/6 334/3/6 340/3/6
f 334/3/6 335/3/6 340/3/6
f 336/2/6 337/2/6 341/2/6
f 340/3/6 336/3/6 341/3/6
f 339/3/6 340/3/6 341/3/6
f 341/2/6 337/2/6 342/2/6
f 339/3/6 341/3/6 343/3/6
f 341/3/6 342/3/6 343/3/6
f 343/3/6 342/3/6 344/3/6
f 339/3/6 343/3/6 345/3/6
f 345/3/6 343/3/6 346/3/6
f 345/2/6 346/2/6 348/2/6
f 346/3/6 343/3/6 349/3/6
f 348/2/6 346/2/6 349/2/6
f 349/3/6 343/3/6 350/3/6
f 350/3/6 343/3/6 351/3/6
f 343/2/6 344/2/6 352/2/6
f 351/3/6 343/3/6 352/3/6
f 352/2/6 344/2/6 353/2/6
f 347/1/6 348/1/6 355/1/6
f 348/3/6 349/3/6 355/3/6
f 349/2/6 350/2/6 356/2/6
f 355/3/6 349/3/6 356/3/6
f 350/3/6 351/3/6 357/3/6
f 356/2/6 350/2/6 357/2/6
f 351/2/6 352/2/6 358/2/6
f 357/3/6 351/3/6 358/3/6
f 352/3/6 353/3/6 359/3/6
f 358/2/6 352/2/6 359/2/6
f 353/1/6 354/1/6 360/1/6
f 359/3/6 353/3/6 360/3/6
f 355/1/6 356/1/6 361/1/6
f 347/1/6 355/1/6 361/1/6
f 361/1/6 356/1/6 362/1/6
f 359/1/6 360/1/6 363/1/6
f 360/1/6 354/1/6 364/1/6
f 363/1/6 360/1/6 364/1/6
