# MagicaVoxel @ ephtracy

# material
mtllib throne.mtl
usemtl palette

# normals
vn -1 0 0
vn 1 0 0
vn 0 0 1
vn 0 0 -1
vn 0 -1 0
vn 0 1 0

# texcoords
vt 0.728516 0.5
vt 0.732422 0.5
vt 0.853516 0.5

# verts
v 17 16 -1
v 17 16 -3
v 17 16 -20
v 17 16 -23
v 17 17 -1
v 17 17 -3
v 17 17 -20
v 17 17 -23
v 17 18 -20
v 17 18 -23
v 18 16 -0
v 18 16 -1
v 18 17 -0
v 18 17 -1
v 18 17 -3
v 18 18 -1
v 18 18 -3
v 21 0 -0
v 21 0 -3
v 21 0 -20
v 21 0 -23
v 21 2 -0
v 21 2 -1
v 21 2 -3
v 21 2 -20
v 21 2 -23
v 21 7 -3
v 21 7 -20
v 21 9 -3
v 21 9 -20
v 21 10 -3
v 21 10 -20
v 21 16 -1
v 21 16 -3
v 21 16 -20
v 21 16 -21
v 21 16 -22
v 21 16 -23
v 22 2 -0
v 22 2 -1
v 22 16 -0
v 22 16 -1
v 24 0 -3
v 24 0 -20
v 24 2 -20
v 24 7 -3
v 24 7 -20
v 24 8 -0
v 24 8 -1
v 24 9 -0
v 24 9 -1
v 25 9 -0
v 25 9 -1
v 25 10 -0
v 25 10 -1
v 34 5 -1
v 34 5 -2
v 34 6 -1
v 34 6 -2
v 34 7 -0
v 34 7 -1
v 34 8 -0
v 34 8 -1
v 35 4 -1
v 35 4 -2
v 35 5 -1
v 35 5 -2
v 35 6 -0
v 35 6 -1
v 35 7 -0
v 35 7 -1
v 35 12 -0
v 35 12 -3
v 35 12 -20
v 35 12 -23
v 35 16 -0
v 35 16 -1
v 35 16 -3
v 35 16 -20
v 35 16 -21
v 35 16 -22
v 35 16 -23
v 36 0 -1
v 36 0 -2
v 36 4 -1
v 36 4 -2
v 36 5 -0
v 36 5 -1
v 36 6 -0
v 36 6 -1
v 37 0 -0
v 37 0 -1
v 37 1 -0
v 37 1 -1
v 37 5 -0
v 37 5 -1
v 37 8 -0
v 37 8 -1
v 37 10 -0
v 37 10 -1
v 37 10 -3
v 37 10 -20
v 37 16 -20
v 37 17 -3
v 37 17 -20
v 37 18 -3
v 37 18 -20
v 37 31 -3
v 37 31 -4
v 37 31 -19
v 37 31 -20
v 37 33 -4
v 37 33 -5
v 37 33 -18
v 37 33 -19
v 37 34 -5
v 37 34 -6
v 37 34 -17
v 37 34 -18
v 37 35 -6
v 37 35 -8
v 37 35 -15
v 37 35 -17
v 37 36 -8
v 37 36 -15
v 38 31 -3
v 38 31 -4
v 38 31 -19
v 38 31 -20
v 38 33 -4
v 38 33 -5
v 38 33 -18
v 38 33 -19
v 38 34 -3
v 38 34 -4
v 38 34 -5
v 38 34 -6
v 38 34 -17
v 38 34 -18
v 38 34 -19
v 38 34 -20
v 38 35 -4
v 38 35 -5
v 38 35 -6
v 38 35 -8
v 38 35 -15
v 38 35 -17
v 38 35 -18
v 38 35 -19
v 38 36 -5
v 38 36 -8
v 38 36 -15
v 38 36 -18
v 23 0 -0
v 23 0 -1
v 23 1 -0
v 23 1 -1
v 23 5 -0
v 23 5 -1
v 23 8 -0
v 23 8 -1
v 23 10 -0
v 23 10 -1
v 23 12 -0
v 23 12 -3
v 23 12 -20
v 23 12 -23
v 23 16 -0
v 23 16 -1
v 23 16 -3
v 23 16 -20
v 23 16 -21
v 23 16 -22
v 23 16 -23
v 24 0 -1
v 24 0 -2
v 24 4 -1
v 24 4 -2
v 24 5 -0
v 24 5 -1
v 24 6 -0
v 24 6 -1
v 25 4 -1
v 25 4 -2
v 25 5 -1
v 25 5 -2
v 25 6 -0
v 25 6 -1
v 25 7 -0
v 25 7 -1
v 26 5 -1
v 26 5 -2
v 26 6 -1
v 26 6 -2
v 26 7 -0
v 26 7 -1
v 26 8 -0
v 26 8 -1
v 35 9 -0
v 35 9 -1
v 35 10 -0
v 35 10 -1
v 36 8 -0
v 36 8 -1
v 36 9 -0
v 36 9 -1
v 36 16 -0
v 36 16 -1
v 36 17 -0
v 36 17 -1
v 37 13 -0
v 37 13 -1
v 37 16 -0
v 37 16 -1
v 38 2 -0
v 38 2 -1
v 38 13 -0
v 38 13 -1
v 39 0 -0
v 39 0 -2
v 39 0 -23
v 39 2 -0
v 39 2 -1
v 39 2 -2
v 39 17 -1
v 39 17 -3
v 39 18 -1
v 39 18 -3
v 39 18 -20
v 39 18 -23
v 39 31 -3
v 39 31 -4
v 39 31 -19
v 39 31 -20
v 39 33 -4
v 39 33 -5
v 39 33 -18
v 39 33 -19
v 39 34 -3
v 39 34 -4
v 39 34 -5
v 39 34 -6
v 39 34 -17
v 39 34 -18
v 39 34 -19
v 39 34 -20
v 39 35 -4
v 39 35 -5
v 39 35 -6
v 39 35 -17
v 39 35 -18
v 39 35 -19
v 39 36 -5
v 39 36 -18
v 18 16 -0
v 18 17 -0
v 21 0 -0
v 21 2 -0
v 22 1 -0
v 22 2 -0
v 22 16 -0
v 23 0 -0
v 23 1 -0
v 23 5 -0
v 23 8 -0
v 23 10 -0
v 23 12 -0
v 23 16 -0
v 24 5 -0
v 24 6 -0
v 24 8 -0
v 24 9 -0
v 25 6 -0
v 25 7 -0
v 25 9 -0
v 25 10 -0
v 26 7 -0
v 26 8 -0
v 34 7 -0
v 34 8 -0
v 35 6 -0
v 35 7 -0
v 35 9 -0
v 35 10 -0
v 35 12 -0
v 35 16 -0
v 36 5 -0
v 36 6 -0
v 36 8 -0
v 36 9 -0
v 36 13 -0
v 36 16 -0
v 36 17 -0
v 37 0 -0
v 37 1 -0
v 37 5 -0
v 37 8 -0
v 37 10 -0
v 37 13 -0
v 37 16 -0
v 38 1 -0
v 38 2 -0
v 38 13 -0
v 39 0 -0
v 39 2 -0
v 17 16 -1
v 17 17 -1
v 18 16 -1
v 18 17 -1
v 18 18 -1
v 21 2 -1
v 21 16 -1
v 22 2 -1
v 22 16 -1
v 23 0 -1
v 23 1 -1
v 23 5 -1
v 23 8 -1
v 23 10 -1
v 24 0 -1
v 24 4 -1
v 24 5 -1
v 24 6 -1
v 24 8 -1
v 24 9 -1
v 25 4 -1
v 25 5 -1
v 25 6 -1
v 25 7 -1
v 25 9 -1
v 25 10 -1
v 26 5 -1
v 26 6 -1
v 26 7 -1
v 26 8 -1
v 34 5 -1
v 34 6 -1
v 34 7 -1
v 34 8 -1
v 35 4 -1
v 35 5 -1
v 35 6 -1
v 35 7 -1
v 35 9 -1
v 35 10 -1
v 36 0 -1
v 36 4 -1
v 36 5 -1
v 36 6 -1
v 36 8 -1
v 36 9 -1
v 36 16 -1
v 36 17 -1
v 37 0 -1
v 37 1 -1
v 37 5 -1
v 37 8 -1
v 37 10 -1
v 37 13 -1
v 37 16 -1
v 38 2 -1
v 38 13 -1
v 39 2 -1
v 39 17 -1
v 39 18 -1
v 24 0 -2
v 24 4 -2
v 25 4 -2
v 25 5 -2
v 26 5 -2
v 26 6 -2
v 34 5 -2
v 34 6 -2
v 35 4 -2
v 35 5 -2
v 36 0 -2
v 36 4 -2
v 37 18 -3
v 37 31 -3
v 38 18 -3
v 38 31 -3
v 38 34 -3
v 39 18 -3
v 39 31 -3
v 39 34 -3
v 37 31 -4
v 37 33 -4
v 38 31 -4
v 38 33 -4
v 38 34 -4
v 38 35 -4
v 39 34 -4
v 39 35 -4
v 37 33 -5
v 37 34 -5
v 38 33 -5
v 38 34 -5
v 38 35 -5
v 38 36 -5
v 39 35 -5
v 39 36 -5
v 37 34 -6
v 37 35 -6
v 38 34 -6
v 38 35 -6
v 37 35 -8
v 37 36 -8
v 38 35 -8
v 38 36 -8
v 17 16 -20
v 17 17 -20
v 17 18 -20
v 21 0 -20
v 21 2 -20
v 21 7 -20
v 21 10 -20
v 21 16 -20
v 23 12 -20
v 23 16 -20
v 24 0 -20
v 24 2 -20
v 24 7 -20
v 35 12 -20
v 35 16 -20
v 37 10 -20
v 37 16 -20
v 37 17 -20
v 37 18 -20
v 17 16 -3
v 17 17 -3
v 18 16 -3
v 18 17 -3
v 18 18 -3
v 21 0 -3
v 21 2 -3
v 21 7 -3
v 21 10 -3
v 21 16 -3
v 22 0 -3
v 22 2 -3
v 23 12 -3
v 23 16 -3
v 24 0 -3
v 24 7 -3
v 35 12 -3
v 35 16 -3
v 37 10 -3
v 37 17 -3
v 37 18 -3
v 37 35 -15
v 37 36 -15
v 38 35 -15
v 38 36 -15
v 37 34 -17
v 37 35 -17
v 38 34 -17
v 38 35 -17
v 37 33 -18
v 37 34 -18
v 38 33 -18
v 38 34 -18
v 38 35 -18
v 38 36 -18
v 39 35 -18
v 39 36 -18
v 37 31 -19
v 37 33 -19
v 38 31 -19
v 38 33 -19
v 38 34 -19
v 38 35 -19
v 39 34 -19
v 39 35 -19
v 37 18 -20
v 37 31 -20
v 38 18 -20
v 38 31 -20
v 38 34 -20
v 39 18 -20
v 39 31 -20
v 39 34 -20
v 17 16 -23
v 17 17 -23
v 17 18 -23
v 21 0 -23
v 21 2 -23
v 21 16 -23
v 22 0 -23
v 22 2 -23
v 23 12 -23
v 23 16 -23
v 35 12 -23
v 35 16 -23
v 38 16 -23
v 38 17 -23
v 38 18 -23
v 39 0 -23
v 39 18 -23
v 21 0 -0
v 23 0 -0
v 37 0 -0
v 39 0 -0
v 22 0 -1
v 23 0 -1
v 24 0 -1
v 36 0 -1
v 37 0 -1
v 38 0 -1
v 23 0 -2
v 24 0 -2
v 36 0 -2
v 37 0 -2
v 38 0 -2
v 39 0 -2
v 21 0 -3
v 22 0 -3
v 24 0 -3
v 21 0 -20
v 24 0 -20
v 22 0 -21
v 24 0 -21
v 21 0 -23
v 22 0 -23
v 39 0 -23
v 24 4 -1
v 25 4 -1
v 35 4 -1
v 36 4 -1
v 24 4 -2
v 25 4 -2
v 35 4 -2
v 36 4 -2
v 23 5 -0
v 24 5 -0
v 36 5 -0
v 37 5 -0
v 23 5 -1
v 24 5 -1
v 25 5 -1
v 26 5 -1
v 34 5 -1
v 35 5 -1
v 36 5 -1
v 37 5 -1
v 25 5 -2
v 26 5 -2
v 34 5 -2
v 35 5 -2
v 24 6 -0
v 25 6 -0
v 35 6 -0
v 36 6 -0
v 24 6 -1
v 25 6 -1
v 26 6 -1
v 34 6 -1
v 35 6 -1
v 36 6 -1
v 26 6 -2
v 34 6 -2
v 25 7 -0
v 26 7 -0
v 34 7 -0
v 35 7 -0
v 25 7 -1
v 26 7 -1
v 34 7 -1
v 35 7 -1
v 21 7 -3
v 24 7 -3
v 21 7 -20
v 24 7 -20
v 26 8 -0
v 34 8 -0
v 26 8 -1
v 34 8 -1
v 23 10 -0
v 25 10 -0
v 35 10 -0
v 37 10 -0
v 23 10 -1
v 25 10 -1
v 35 10 -1
v 37 10 -1
v 18 16 -0
v 22 16 -0
v 23 16 -0
v 35 16 -0
v 17 16 -1
v 18 16 -1
v 21 16 -1
v 22 16 -1
v 23 16 -1
v 35 16 -1
v 17 16 -3
v 18 16 -3
v 21 16 -3
v 23 16 -3
v 35 16 -3
v 17 16 -20
v 21 16 -20
v 23 16 -20
v 35 16 -20
v 18 16 -21
v 21 16 -21
v 23 16 -21
v 35 16 -21
v 18 16 -22
v 21 16 -22
v 23 16 -22
v 35 16 -22
v 17 16 -23
v 21 16 -23
v 23 16 -23
v 35 16 -23
v 21 2 -0
v 22 2 -0
v 38 2 -0
v 39 2 -0
v 21 2 -1
v 22 2 -1
v 38 2 -1
v 39 2 -1
v 23 8 -0
v 24 8 -0
v 36 8 -0
v 37 8 -0
v 23 8 -1
v 24 8 -1
v 36 8 -1
v 37 8 -1
v 24 9 -0
v 25 9 -0
v 35 9 -0
v 36 9 -0
v 24 9 -1
v 25 9 -1
v 35 9 -1
v 36 9 -1
v 21 10 -3
v 37 10 -3
v 21 10 -20
v 37 10 -20
v 23 12 -0
v 35 12 -0
v 23 12 -3
v 35 12 -3
v 23 12 -20
v 35 12 -20
v 23 12 -23
v 35 12 -23
v 37 13 -0
v 38 13 -0
v 37 13 -1
v 38 13 -1
v 36 16 -0
v 37 16 -0
v 36 16 -1
v 37 16 -1
v 18 17 -0
v 36 17 -0
v 17 17 -1
v 18 17 -1
v 36 17 -1
v 17 17 -3
v 18 17 -3
v 18 18 -1
v 39 18 -1
v 18 18 -3
v 37 18 -3
v 38 18 -3
v 39 18 -3
v 17 18 -20
v 37 18 -20
v 38 18 -20
v 39 18 -20
v 17 18 -23
v 38 18 -23
v 39 18 -23
v 37 31 -3
v 38 31 -3
v 37 31 -4
v 38 31 -4
v 37 31 -19
v 38 31 -19
v 37 31 -20
v 38 31 -20
v 37 33 -4
v 38 33 -4
v 37 33 -5
v 38 33 -5
v 37 33 -18
v 38 33 -18
v 37 33 -19
v 38 33 -19
v 38 34 -3
v 39 34 -3
v 38 34 -4
v 39 34 -4
v 37 34 -5
v 38 34 -5
v 37 34 -6
v 38 34 -6
v 37 34 -17
v 38 34 -17
v 37 34 -18
v 38 34 -18
v 38 34 -19
v 39 34 -19
v 38 34 -20
v 39 34 -20
v 38 35 -4
v 39 35 -4
v 38 35 -5
v 39 35 -5
v 37 35 -6
v 38 35 -6
v 37 35 -8
v 38 35 -8
v 37 35 -15
v 38 35 -15
v 37 35 -17
v 38 35 -17
v 38 35 -18
v 39 35 -18
v 38 35 -19
v 39 35 -19
v 38 36 -5
v 39 36 -5
v 37 36 -8
v 38 36 -8
v 37 36 -15
v 38 36 -15
v 38 36 -18
v 39 36 -18

# faces
f 5/2/1 2/2/1 1/2/1
f 6/2/1 2/2/1 5/2/1
f 7/2/1 4/2/1 3/2/1
f 8/2/1 4/2/1 7/2/1
f 9/3/1 8/3/1 7/3/1
f 10/3/1 8/3/1 9/3/1
f 13/2/1 12/2/1 11/2/1
f 14/2/1 12/2/1 13/2/1
f 16/3/1 15/3/1 14/3/1
f 17/3/1 15/3/1 16/3/1
f 22/2/1 19/2/1 18/2/1
f 23/2/1 19/2/1 22/2/1
f 24/2/1 19/2/1 23/2/1
f 25/2/1 21/2/1 20/2/1
f 26/2/1 21/2/1 25/2/1
f 27/1/1 24/1/1 23/1/1
f 28/1/1 26/1/1 25/1/1
f 29/1/1 27/1/1 23/1/1
f 29/1/1 28/1/1 27/1/1
f 30/1/1 26/1/1 28/1/1
f 30/1/1 28/1/1 29/1/1
f 31/1/1 29/1/1 23/1/1
f 31/3/1 30/3/1 29/3/1
f 32/1/1 26/1/1 30/1/1
f 32/3/1 30/3/1 31/3/1
f 33/1/1 31/1/1 23/1/1
f 34/1/1 31/1/1 33/1/1
f 35/1/1 26/1/1 32/1/1
f 36/1/1 26/1/1 35/1/1
f 37/1/1 26/1/1 36/1/1
f 38/1/1 26/1/1 37/1/1
f 41/1/1 40/1/1 39/1/1
f 42/1/1 40/1/1 41/1/1
f 45/1/1 44/1/1 43/1/1
f 46/1/1 45/1/1 43/1/1
f 47/1/1 45/1/1 46/1/1
f 50/1/1 49/1/1 48/1/1
f 51/1/1 49/1/1 50/1/1
f 54/1/1 53/1/1 52/1/1
f 55/1/1 53/1/1 54/1/1
f 58/2/1 57/2/1 56/2/1
f 59/2/1 57/2/1 58/2/1
f 62/1/1 61/1/1 60/1/1
f 63/1/1 61/1/1 62/1/1
f 66/2/1 65/2/1 64/2/1
f 67/2/1 65/2/1 66/2/1
f 70/1/1 69/1/1 68/1/1
f 71/1/1 69/1/1 70/1/1
f 76/1/1 73/1/1 72/1/1
f 77/1/1 73/1/1 76/1/1
f 78/1/1 73/1/1 77/1/1
f 79/1/1 75/1/1 74/1/1
f 80/1/1 75/1/1 79/1/1
f 81/1/1 75/1/1 80/1/1
f 82/1/1 75/1/1 81/1/1
f 85/2/1 84/2/1 83/2/1
f 86/2/1 84/2/1 85/2/1
f 89/1/1 88/1/1 87/1/1
f 90/1/1 88/1/1 89/1/1
f 93/2/1 92/2/1 91/2/1
f 94/2/1 92/2/1 93/2/1
f 95/1/1 94/1/1 93/1/1
f 96/1/1 94/1/1 95/1/1
f 99/1/1 98/1/1 97/1/1
f 100/1/1 98/1/1 99/1/1
f 103/3/1 102/3/1 101/3/1
f 104/3/1 103/3/1 101/3/1
f 105/3/1 103/3/1 104/3/1
f 106/3/1 105/3/1 104/3/1
f 107/3/1 105/3/1 106/3/1
f 108/3/1 107/3/1 106/3/1
f 109/3/1 107/3/1 108/3/1
f 110/3/1 107/3/1 109/3/1
f 111/3/1 107/3/1 110/3/1
f 112/3/1 110/3/1 109/3/1
f 113/3/1 110/3/1 112/3/1
f 114/3/1 110/3/1 113/3/1
f 115/3/1 110/3/1 114/3/1
f 116/3/1 114/3/1 113/3/1
f 117/3/1 114/3/1 116/3/1
f 118/3/1 114/3/1 117/3/1
f 119/3/1 114/3/1 118/3/1
f 120/3/1 118/3/1 117/3/1
f 121/3/1 118/3/1 120/3/1
f 122/3/1 118/3/1 121/3/1
f 123/3/1 118/3/1 122/3/1
f 124/3/1 122/3/1 121/3/1
f 125/3/1 122/3/1 124/3/1
f 130/2/1 127/2/1 126/2/1
f 133/2/1 129/2/1 128/2/1
f 134/2/1 131/2/1 130/2/1
f 134/2/1 130/2/1 126/2/1
f 135/2/1 131/2/1 134/2/1
f 136/2/1 131/2/1 135/2/1
f 139/2/1 133/2/1 132/2/1
f 140/2/1 129/2/1 133/2/1
f 140/2/1 133/2/1 139/2/1
f 141/2/1 129/2/1 140/2/1
f 142/2/1 137/2/1 136/2/1
f 142/2/1 136/2/1 135/2/1
f 143/2/1 137/2/1 142/2/1
f 144/2/1 137/2/1 143/2/1
f 147/2/1 139/2/1 138/2/1
f 147/2/1 140/2/1 139/2/1
f 148/2/1 140/2/1 147/2/1
f 149/2/1 140/2/1 148/2/1
f 150/2/1 145/2/1 144/2/1
f 150/2/1 144/2/1 143/2/1
f 151/2/1 145/2/1 150/2/1
f 152/2/1 148/2/1 147/2/1
f 152/2/1 147/2/1 146/2/1
f 153/2/1 148/2/1 152/2/1
f 154/2/2 155/2/2 156/2/2
f 156/2/2 155/2/2 157/2/2
f 156/1/2 157/1/2 158/1/2
f 158/1/2 157/1/2 159/1/2
f 160/1/2 161/1/2 162/1/2
f 162/1/2 161/1/2 163/1/2
f 164/1/2 165/1/2 168/1/2
f 168/1/2 165/1/2 169/1/2
f 169/1/2 165/1/2 170/1/2
f 166/1/2 167/1/2 171/1/2
f 171/1/2 167/1/2 172/1/2
f 172/1/2 167/1/2 173/1/2
f 173/1/2 167/1/2 174/1/2
f 175/2/2 176/2/2 177/2/2
f 177/2/2 176/2/2 178/2/2
f 179/1/2 180/1/2 181/1/2
f 181/1/2 180/1/2 182/1/2
f 183/2/2 184/2/2 185/2/2
f 185/2/2 184/2/2 186/2/2
f 187/1/2 188/1/2 189/1/2
f 189/1/2 188/1/2 190/1/2
f 191/2/2 192/2/2 193/2/2
f 193/2/2 192/2/2 194/2/2
f 195/1/2 196/1/2 197/1/2
f 197/1/2 196/1/2 198/1/2
f 199/1/2 200/1/2 201/1/2
f 201/1/2 200/1/2 202/1/2
f 203/1/2 204/1/2 205/1/2
f 205/1/2 204/1/2 206/1/2
f 207/2/2 208/2/2 209/2/2
f 209/2/2 208/2/2 210/2/2
f 211/2/2 212/2/2 213/2/2
f 213/2/2 212/2/2 214/2/2
f 215/1/2 216/1/2 217/1/2
f 217/1/2 216/1/2 218/1/2
f 219/2/2 220/2/2 222/2/2
f 222/2/2 220/2/2 223/2/2
f 220/1/2 221/1/2 224/1/2
f 223/2/2 220/2/2 224/2/2
f 223/1/2 224/1/2 225/1/2
f 224/1/2 221/1/2 226/1/2
f 225/1/2 224/1/2 226/1/2
f 225/3/2 226/3/2 227/3/2
f 226/1/2 221/1/2 228/1/2
f 227/3/2 226/3/2 228/3/2
f 228/1/2 221/1/2 229/1/2
f 229/1/2 221/1/2 230/1/2
f 228/1/2 229/1/2 231/1/2
f 231/1/2 229/1/2 232/1/2
f 232/1/2 229/1/2 233/1/2
f 233/1/2 229/1/2 234/1/2
f 231/2/2 232/2/2 235/2/2
f 232/1/2 233/1/2 235/1/2
f 235/1/2 233/1/2 236/1/2
f 236/1/2 233/1/2 237/1/2
f 233/2/2 234/2/2 238/2/2
f 237/1/2 233/1/2 238/1/2
f 231/2/2 235/2/2 239/2/2
f 235/2/2 236/2/2 239/2/2
f 239/2/2 236/2/2 240/2/2
f 236/1/2 237/1/2 241/1/2
f 240/2/2 236/2/2 241/2/2
f 241/1/2 237/1/2 242/1/2
f 242/1/2 237/1/2 243/1/2
f 237/2/2 238/2/2 244/2/2
f 243/1/2 237/1/2 244/1/2
f 238/2/2 234/2/2 245/2/2
f 244/2/2 238/2/2 245/2/2
f 245/2/2 234/2/2 246/2/2
f 240/2/2 241/2/2 247/2/2
f 241/2/2 242/2/2 247/2/2
f 247/2/2 242/2/2 248/2/2
f 242/1/2 243/1/2 249/1/2
f 248/2/2 242/2/2 249/2/2
f 243/2/2 244/2/2 250/2/2
f 249/1/2 243/1/2 250/1/2
f 244/2/2 245/2/2 250/2/2
f 250/2/2 245/2/2 251/2/2
f 251/2/2 245/2/2 252/2/2
f 248/2/2 249/2/2 253/2/2
f 250/2/2 251/2/2 253/2/2
f 249/2/2 250/2/2 253/2/2
f 253/2/2 251/2/2 254/2/2
f 259/2/3 258/2/3 257/2/3
f 260/2/3 258/2/3 259/2/3
f 261/2/3 256/2/3 255/2/3
f 262/2/3 259/2/3 257/2/3
f 263/1/3 260/1/3 259/1/3
f 263/2/3 259/2/3 262/2/3
f 263/1/3 261/1/3 260/1/3
f 264/1/3 261/1/3 263/1/3
f 265/1/3 261/1/3 264/1/3
f 266/1/3 261/1/3 265/1/3
f 267/1/3 261/1/3 266/1/3
f 268/2/3 256/2/3 261/2/3
f 268/1/3 261/1/3 267/1/3
f 269/1/3 265/1/3 264/1/3
f 270/1/3 265/1/3 269/1/3
f 271/1/3 265/1/3 270/1/3
f 273/1/3 272/1/3 271/1/3
f 273/1/3 271/1/3 270/1/3
f 274/1/3 272/1/3 273/1/3
f 275/1/3 272/1/3 274/1/3
f 276/1/3 267/1/3 266/1/3
f 277/1/3 275/1/3 274/1/3
f 277/1/3 276/1/3 275/1/3
f 278/1/3 276/1/3 277/1/3
f 280/1/3 276/1/3 278/1/3
f 282/1/3 280/1/3 279/1/3
f 283/1/3 276/1/3 280/1/3
f 283/1/3 280/1/3 282/1/3
f 284/1/3 267/1/3 276/1/3
f 284/1/3 276/1/3 283/1/3
f 285/1/3 267/1/3 284/1/3
f 286/2/3 256/2/3 268/2/3
f 288/1/3 283/1/3 282/1/3
f 288/1/3 282/1/3 281/1/3
f 289/1/3 283/1/3 288/1/3
f 290/1/3 283/1/3 289/1/3
f 291/1/3 285/1/3 284/1/3
f 291/1/3 286/1/3 285/1/3
f 292/2/3 256/2/3 286/2/3
f 292/1/3 286/1/3 291/1/3
f 293/2/3 256/2/3 292/2/3
f 296/1/3 289/1/3 288/1/3
f 296/1/3 288/1/3 287/1/3
f 297/1/3 289/1/3 296/1/3
f 298/1/3 291/1/3 284/1/3
f 299/2/3 292/2/3 291/2/3
f 299/1/3 291/1/3 298/1/3
f 300/2/3 292/2/3 299/2/3
f 301/1/3 297/1/3 296/1/3
f 301/2/3 295/2/3 294/2/3
f 301/1/3 299/1/3 298/1/3
f 301/1/3 298/1/3 297/1/3
f 301/1/3 296/1/3 295/1/3
f 302/1/3 299/1/3 301/1/3
f 303/1/3 299/1/3 302/1/3
f 304/2/3 301/2/3 294/2/3
f 304/2/3 302/2/3 301/2/3
f 305/2/3 302/2/3 304/2/3
f 308/2/3 307/2/3 306/2/3
f 309/2/3 307/2/3 308/2/3
f 313/1/3 312/1/3 311/1/3
f 314/1/3 312/1/3 313/1/3
f 320/2/3 316/2/3 315/2/3
f 320/2/3 317/2/3 316/2/3
f 321/2/3 317/2/3 320/2/3
f 322/2/3 317/2/3 321/2/3
f 324/2/3 319/2/3 318/2/3
f 325/2/3 319/2/3 324/2/3
f 326/2/3 323/2/3 322/2/3
f 326/2/3 322/2/3 321/2/3
f 327/2/3 323/2/3 326/2/3
f 328/2/3 323/2/3 327/2/3
f 330/2/3 319/2/3 325/2/3
f 331/2/3 319/2/3 330/2/3
f 332/2/3 329/2/3 328/2/3
f 332/2/3 328/2/3 327/2/3
f 333/2/3 329/2/3 332/2/3
f 334/2/3 329/2/3 333/2/3
f 337/2/3 335/2/3 334/2/3
f 337/2/3 334/2/3 333/2/3
f 338/2/3 335/2/3 337/2/3
f 339/2/3 335/2/3 338/2/3
f 341/2/3 337/2/3 336/2/3
f 341/2/3 338/2/3 337/2/3
f 342/2/3 338/2/3 341/2/3
f 343/2/3 338/2/3 342/2/3
f 347/2/3 341/2/3 340/2/3
f 347/2/3 342/2/3 341/2/3
f 348/2/3 342/2/3 347/2/3
f 349/2/3 342/2/3 348/2/3
f 351/2/3 345/2/3 344/2/3
f 353/3/3 310/3/3 309/3/3
f 354/2/3 347/2/3 346/2/3
f 354/2/3 348/2/3 347/2/3
f 355/2/3 348/2/3 354/2/3
f 356/2/3 348/2/3 355/2/3
f 357/2/3 351/2/3 350/2/3
f 358/2/3 345/2/3 351/2/3
f 358/2/3 351/2/3 357/2/3
f 360/1/3 353/1/3 352/1/3
f 362/1/3 360/1/3 359/1/3
f 363/1/3 362/1/3 361/1/3
f 364/1/3 353/1/3 360/1/3
f 364/1/3 362/1/3 363/1/3
f 364/3/3 310/3/3 353/3/3
f 364/1/3 360/1/3 362/1/3
f 365/3/3 310/3/3 364/3/3
f 368/1/3 367/1/3 366/1/3
f 370/1/3 369/1/3 368/1/3
f 372/1/3 370/1/3 368/1/3
f 372/1/3 371/1/3 370/1/3
f 373/1/3 371/1/3 372/1/3
f 374/1/3 368/1/3 366/1/3
f 374/1/3 372/1/3 368/1/3
f 375/1/3 372/1/3 374/1/3
f 376/1/3 374/1/3 366/1/3
f 377/1/3 374/1/3 376/1/3
f 380/3/3 379/3/3 378/3/3
f 381/3/3 379/3/3 380/3/3
f 383/1/3 381/1/3 380/1/3
f 384/2/3 382/2/3 381/2/3
f 384/1/3 381/1/3 383/1/3
f 385/2/3 382/2/3 384/2/3
f 388/3/3 387/3/3 386/3/3
f 389/3/3 387/3/3 388/3/3
f 392/2/3 391/2/3 390/2/3
f 393/2/3 391/2/3 392/2/3
f 396/3/3 395/3/3 394/3/3
f 397/3/3 395/3/3 396/3/3
f 400/2/3 399/2/3 398/2/3
f 401/2/3 399/2/3 400/2/3
f 404/3/3 403/3/3 402/3/3
f 405/3/3 403/3/3 404/3/3
f 408/3/3 407/3/3 406/3/3
f 409/3/3 407/3/3 408/3/3
f 417/2/3 411/2/3 410/2/3
f 418/1/3 417/1/3 416/1/3
f 419/2/3 411/2/3 417/2/3
f 419/1/3 417/1/3 418/1/3
f 420/2/3 414/2/3 413/2/3
f 421/1/3 415/1/3 414/1/3
f 421/2/3 414/2/3 420/2/3
f 422/1/3 415/1/3 421/1/3
f 423/1/3 418/1/3 416/1/3
f 424/2/3 411/2/3 419/2/3
f 425/1/3 423/1/3 416/1/3
f 425/1/3 424/1/3 423/1/3
f 426/2/3 411/2/3 424/2/3
f 426/1/3 424/1/3 425/1/3
f 427/3/3 412/3/3 411/3/3
f 427/2/3 411/2/3 426/2/3
f 428/3/3 412/3/3 427/3/3
f 429/2/4 430/2/4 431/2/4
f 431/2/4 430/2/4 432/2/4
f 431/1/4 432/1/4 438/1/4
f 434/2/4 435/2/4 439/2/4
f 435/1/4 436/1/4 440/1/4
f 439/2/4 435/2/4 440/2/4
f 437/1/4 438/1/4 441/1/4
f 438/1/4 432/1/4 442/1/4
f 441/1/4 438/1/4 442/1/4
f 439/1/4 440/1/4 443/1/4
f 440/1/4 436/1/4 444/1/4
f 443/1/4 440/1/4 444/1/4
f 437/1/4 441/1/4 445/1/4
f 442/1/4 432/1/4 446/1/4
f 437/1/4 445/1/4 447/1/4
f 445/1/4 446/1/4 447/1/4
f 432/3/4 433/3/4 448/3/4
f 447/1/4 446/1/4 448/1/4
f 446/1/4 432/1/4 448/1/4
f 448/3/4 433/3/4 449/3/4
f 450/3/4 451/3/4 452/3/4
f 452/3/4 451/3/4 453/3/4
f 454/3/4 455/3/4 456/3/4
f 456/3/4 455/3/4 457/3/4
f 458/3/4 459/3/4 460/3/4
f 460/3/4 459/3/4 461/3/4
f 462/2/4 463/2/4 464/2/4
f 464/2/4 463/2/4 465/2/4
f 466/3/4 467/3/4 468/3/4
f 468/3/4 467/3/4 469/3/4
f 470/2/4 471/2/4 472/2/4
f 472/2/4 471/2/4 473/2/4
f 474/3/4 475/3/4 476/3/4
f 476/3/4 475/3/4 477/3/4
f 476/1/4 477/1/4 479/1/4
f 477/2/4 478/2/4 480/2/4
f 479/1/4 477/1/4 480/1/4
f 480/2/4 478/2/4 481/2/4
f 482/2/4 483/2/4 487/2/4
f 485/2/4 486/2/4 488/2/4
f 486/1/4 487/1/4 489/1/4
f 488/2/4 486/2/4 489/2/4
f 488/1/4 489/1/4 490/1/4
f 489/1/4 487/1/4 490/1/4
f 487/2/4 483/2/4 491/2/4
f 490/1/4 487/1/4 491/1/4
f 488/1/4 490/1/4 492/1/4
f 491/2/4 483/2/4 493/2/4
f 493/2/4 483/2/4 494/2/4
f 492/1/4 493/1/4 494/1/4
f 483/3/4 484/3/4 495/3/4
f 494/2/4 483/2/4 495/2/4
f 495/3/4 484/3/4 496/3/4
f 492/1/4 494/1/4 497/1/4
f 488/1/4 492/1/4 497/1/4
f 495/1/4 496/1/4 497/1/4
f 494/1/4 495/1/4 497/1/4
f 497/1/4 496/1/4 498/1/4
f 503/2/5 500/2/5 499/2/5
f 504/2/5 500/2/5 503/2/5
f 507/2/5 502/2/5 501/2/5
f 508/2/5 502/2/5 507/2/5
f 509/2/5 505/2/5 504/2/5
f 509/1/5 504/1/5 503/1/5
f 510/2/5 505/2/5 509/2/5
f 511/2/5 507/2/5 506/2/5
f 512/1/5 508/1/5 507/1/5
f 512/2/5 507/2/5 511/2/5
f 513/2/5 502/2/5 508/2/5
f 513/1/5 508/1/5 512/1/5
f 514/2/5 502/2/5 513/2/5
f 515/2/5 503/2/5 499/2/5
f 516/1/5 512/1/5 511/1/5
f 516/2/5 503/2/5 515/2/5
f 516/1/5 511/1/5 510/1/5
f 516/1/5 514/1/5 513/1/5
f 516/1/5 513/1/5 512/1/5
f 516/1/5 510/1/5 509/1/5
f 516/1/5 509/1/5 503/1/5
f 517/1/5 514/1/5 516/1/5
f 519/1/5 514/1/5 517/1/5
f 520/2/5 519/2/5 518/2/5
f 521/1/5 514/1/5 519/1/5
f 521/2/5 519/2/5 520/2/5
f 522/2/5 520/2/5 518/2/5
f 523/1/5 521/1/5 520/1/5
f 523/2/5 520/2/5 522/2/5
f 524/1/5 514/1/5 521/1/5
f 524/1/5 521/1/5 523/1/5
f 529/2/5 526/2/5 525/2/5
f 530/2/5 526/2/5 529/2/5
f 531/2/5 528/2/5 527/2/5
f 532/2/5 528/2/5 531/2/5
f 537/1/5 534/1/5 533/1/5
f 538/1/5 534/1/5 537/1/5
f 543/1/5 536/1/5 535/1/5
f 544/1/5 536/1/5 543/1/5
f 545/2/5 540/2/5 539/2/5
f 546/2/5 540/2/5 545/2/5
f 547/2/5 542/2/5 541/2/5
f 548/2/5 542/2/5 547/2/5
f 553/1/5 550/1/5 549/1/5
f 554/1/5 550/1/5 553/1/5
f 557/1/5 552/1/5 551/1/5
f 558/1/5 552/1/5 557/1/5
f 559/2/5 556/2/5 555/2/5
f 560/2/5 556/2/5 559/2/5
f 565/1/5 562/1/5 561/1/5
f 566/1/5 562/1/5 565/1/5
f 567/1/5 564/1/5 563/1/5
f 568/1/5 564/1/5 567/1/5
f 571/1/5 570/1/5 569/1/5
f 572/1/5 570/1/5 571/1/5
f 575/1/5 574/1/5 573/1/5
f 576/1/5 574/1/5 575/1/5
f 581/1/5 578/1/5 577/1/5
f 582/1/5 578/1/5 581/1/5
f 583/1/5 580/1/5 579/1/5
f 584/1/5 580/1/5 583/1/5
f 590/2/5 586/2/5 585/2/5
f 591/2/5 586/2/5 590/2/5
f 592/2/5 586/2/5 591/2/5
f 593/2/5 588/2/5 587/2/5
f 594/2/5 588/2/5 593/2/5
f 595/2/5 590/2/5 589/2/5
f 596/1/5 591/1/5 590/1/5
f 596/2/5 590/2/5 595/2/5
f 597/1/5 591/1/5 596/1/5
f 598/1/5 594/1/5 593/1/5
f 599/1/5 594/1/5 598/1/5
f 604/2/5 601/2/5 600/2/5
f 605/2/5 601/2/5 604/2/5
f 606/2/5 603/2/5 602/2/5
f 607/2/5 603/2/5 606/2/5
f 608/1/5 605/1/5 604/1/5
f 608/2/5 604/2/5 600/2/5
f 609/1/5 605/1/5 608/1/5
f 610/1/5 607/1/5 606/1/5
f 611/1/5 607/1/5 610/1/5
f 612/2/5 609/2/5 608/2/5
f 612/2/5 608/2/5 600/2/5
f 613/2/5 609/2/5 612/2/5
f 614/2/5 611/2/5 610/2/5
f 615/2/5 611/2/5 614/2/5
f 616/2/6 617/2/6 620/2/6
f 620/2/6 617/2/6 621/2/6
f 618/2/6 619/2/6 622/2/6
f 622/2/6 619/2/6 623/2/6
f 624/1/6 625/1/6 628/1/6
f 628/1/6 625/1/6 629/1/6
f 626/1/6 627/1/6 630/1/6
f 630/1/6 627/1/6 631/1/6
f 632/1/6 633/1/6 636/1/6
f 636/1/6 633/1/6 637/1/6
f 634/1/6 635/1/6 638/1/6
f 638/1/6 635/1/6 639/1/6
f 640/3/6 641/3/6 642/3/6
f 642/3/6 641/3/6 643/3/6
f 644/1/6 645/1/6 646/1/6
f 646/1/6 645/1/6 647/1/6
f 648/1/6 649/1/6 650/1/6
f 650/1/6 649/1/6 651/1/6
f 652/1/6 653/1/6 654/1/6
f 654/1/6 653/1/6 655/1/6
f 656/2/6 657/2/6 658/2/6
f 658/2/6 657/2/6 659/2/6
f 660/2/6 661/2/6 663/2/6
f 663/2/6 661/2/6 664/2/6
f 662/2/6 663/2/6 665/2/6
f 665/2/6 663/2/6 666/2/6
f 667/3/6 668/3/6 669/3/6
f 669/3/6 668/3/6 670/3/6
f 670/3/6 668/3/6 671/3/6
f 671/3/6 668/3/6 672/3/6
f 673/3/6 674/3/6 677/3/6
f 674/3/6 675/3/6 677/3/6
f 675/1/6 676/1/6 678/1/6
f 677/3/6 675/3/6 678/3/6
f 678/1/6 676/1/6 679/1/6
f 680/3/6 681/3/6 682/3/6
f 682/3/6 681/3/6 683/3/6
f 684/3/6 685/3/6 686/3/6
f 686/3/6 685/3/6 687/3/6
f 688/3/6 689/3/6 690/3/6
f 690/3/6 689/3/6 691/3/6
f 692/3/6 693/3/6 694/3/6
f 694/3/6 693/3/6 695/3/6
f 696/2/6 697/2/6 698/2/6
f 698/2/6 697/2/6 699/2/6
f 700/3/6 701/3/6 702/3/6
f 702/3/6 701/3/6 703/3/6
f 704/3/6 705/3/6 706/3/6
f 706/3/6 705/3/6 707/3/6
f 708/2/6 709/2/6 710/2/6
f 710/2/6 709/2/6 711/2/6
f 712/2/6 713/2/6 714/2/6
f 714/2/6 713/2/6 715/2/6
f 716/3/6 717/3/6 718/3/6
f 718/3/6 717/3/6 719/3/6
f 720/3/6 721/3/6 722/3/6
f 722/3/6 721/3/6 723/3/6
f 724/2/6 725/2/6 726/2/6
f 726/2/6 725/2/6 727/2/6
f 728/2/6 729/2/6 731/2/6
f 730/3/6 731/3/6 732/3/6
f 731/2/6 729/2/6 733/2/6
f 732/3/6 731/3/6 733/3/6
f 733/2/6 729/2/6 734/2/6
f 734/2/6 729/2/6 735/2/6
