# MagicaVoxel @ ephtracy

# material
mtllib truc.mtl
usemtl palette

# normals
vn -1 0 0
vn 1 0 0
vn 0 0 1
vn 0 0 -1
vn 0 -1 0
vn 0 1 0

# texcoords
vt 0.876953 0.5
vt 0.923828 0.5
vt 0.939453 0.5

# verts
v -37 47 3
v -37 47 -25
v -37 50 3
v -37 50 -25
v -36 46 2
v -36 46 -25
v -36 47 2
v -36 47 -25
v -22 41 -24
v -22 41 -25
v -22 45 -13
v -22 45 -24
v -22 46 -13
v -22 46 -25
v -21 36 -24
v -21 36 -25
v -21 41 -24
v -21 41 -25
v -21 44 -23
v -21 44 -24
v -21 45 -0
v -21 45 -13
v -21 45 -23
v -21 45 -24
v -21 46 -0
v -21 46 -13
v -20 40 -23
v -20 40 -24
v -20 44 -18
v -20 44 -23
v -20 44 -24
v -20 45 -18
v -20 45 -23
v 13 41 -24
v 13 41 -25
v 13 45 -13
v 13 45 -24
v 13 46 -13
v 13 46 -25
v 14 36 -24
v 14 36 -25
v 14 41 -24
v 14 41 -25
v 14 44 -23
v 14 44 -24
v 14 45 -0
v 14 45 -13
v 14 45 -23
v 14 45 -24
v 14 46 -0
v 14 46 -13
v 15 40 -23
v 15 40 -24
v 15 44 -18
v 15 44 -23
v 15 44 -24
v 15 45 -18
v 15 45 -23
v -19 40 -23
v -19 40 -24
v -19 44 -18
v -19 44 -23
v -19 44 -24
v -19 45 -18
v -19 45 -23
v -18 36 -24
v -18 36 -25
v -18 41 -24
v -18 41 -25
v -18 44 -23
v -18 44 -24
v -18 45 -0
v -18 45 -13
v -18 45 -23
v -18 45 -24
v -18 46 -0
v -18 46 -13
v -17 41 -24
v -17 41 -25
v -17 45 -13
v -17 45 -24
v -17 46 -13
v -17 46 -25
v 16 40 -23
v 16 40 -24
v 16 44 -18
v 16 44 -23
v 16 44 -24
v 16 45 -18
v 16 45 -23
v 17 36 -24
v 17 36 -25
v 17 41 -24
v 17 41 -25
v 17 44 -23
v 17 44 -24
v 17 45 -0
v 17 45 -13
v 17 45 -23
v 17 45 -24
v 17 46 -0
v 17 46 -13
v 18 41 -24
v 18 41 -25
v 18 45 -13
v 18 45 -24
v 18 46 -13
v 18 46 -25
v 32 46 2
v 32 46 -25
v 32 47 2
v 32 47 -25
v 33 47 3
v 33 47 -25
v 33 50 3
v 33 50 -25
v -37 47 3
v -37 50 3
v 33 47 3
v 33 50 3
v -36 46 2
v -36 47 2
v 32 46 2
v 32 47 2
v -21 45 -0
v -21 46 -0
v -18 45 -0
v -18 46 -0
v 14 45 -0
v 14 46 -0
v 17 45 -0
v 17 46 -0
v -22 45 -13
v -22 46 -13
v -21 45 -13
v -21 46 -13
v -18 45 -13
v -18 46 -13
v -17 45 -13
v -17 46 -13
v 13 45 -13
v 13 46 -13
v 14 45 -13
v 14 46 -13
v 17 45 -13
v 17 46 -13
v 18 45 -13
v 18 46 -13
v -20 44 -18
v -20 45 -18
v -19 44 -18
v -19 45 -18
v 15 44 -18
v 15 45 -18
v 16 44 -18
v 16 45 -18
v -21 44 -23
v -21 45 -23
v -20 40 -23
v -20 44 -23
v -20 45 -23
v -19 40 -23
v -19 44 -23
v -19 45 -23
v -18 44 -23
v -18 45 -23
v 14 44 -23
v 14 45 -23
v 15 40 -23
v 15 44 -23
v 15 45 -23
v 16 40 -23
v 16 44 -23
v 16 45 -23
v 17 44 -23
v 17 45 -23
v -22 41 -24
v -22 45 -24
v -21 36 -24
v -21 41 -24
v -21 44 -24
v -21 45 -24
v -20 40 -24
v -20 44 -24
v -19 40 -24
v -19 44 -24
v -18 36 -24
v -18 41 -24
v -18 44 -24
v -18 45 -24
v -17 41 -24
v -17 45 -24
v 13 41 -24
v 13 45 -24
v 14 36 -24
v 14 41 -24
v 14 44 -24
v 14 45 -24
v 15 40 -24
v 15 44 -24
v 16 40 -24
v 16 44 -24
v 17 36 -24
v 17 41 -24
v 17 44 -24
v 17 45 -24
v 18 41 -24
v 18 45 -24
v -37 47 -25
v -37 50 -25
v -36 46 -25
v -36 47 -25
v -35 49 -25
v -35 50 -25
v -22 41 -25
v -22 46 -25
v -21 36 -25
v -21 41 -25
v -18 36 -25
v -18 41 -25
v -17 41 -25
v -17 46 -25
v 13 41 -25
v 13 46 -25
v 14 36 -25
v 14 41 -25
v 17 36 -25
v 17 41 -25
v 18 41 -25
v 18 46 -25
v 30 49 -25
v 30 50 -25
v 32 46 -25
v 32 47 -25
v 33 47 -25
v 33 50 -25
v -21 36 -24
v -18 36 -24
v 14 36 -24
v 17 36 -24
v -21 36 -25
v -18 36 -25
v 14 36 -25
v 17 36 -25
v -20 40 -23
v -19 40 -23
v 15 40 -23
v 16 40 -23
v -20 40 -24
v -19 40 -24
v 15 40 -24
v 16 40 -24
v -22 41 -24
v -21 41 -24
v -18 41 -24
v -17 41 -24
v 13 41 -24
v 14 41 -24
v 17 41 -24
v 18 41 -24
v -22 41 -25
v -21 41 -25
v -18 41 -25
v -17 41 -25
v 13 41 -25
v 14 41 -25
v 17 41 -25
v 18 41 -25
v -20 44 -18
v -19 44 -18
v 15 44 -18
v 16 44 -18
v -21 44 -23
v -20 44 -23
v -19 44 -23
v -18 44 -23
v 14 44 -23
v 15 44 -23
v 16 44 -23
v 17 44 -23
v -21 44 -24
v -20 44 -24
v -19 44 -24
v -18 44 -24
v 14 44 -24
v 15 44 -24
v 16 44 -24
v 17 44 -24
v -21 45 -0
v -18 45 -0
v 14 45 -0
v 17 45 -0
v -22 45 -13
v -21 45 -13
v -18 45 -13
v -17 45 -13
v 13 45 -13
v 14 45 -13
v 17 45 -13
v 18 45 -13
v -20 45 -18
v -19 45 -18
v 15 45 -18
v 16 45 -18
v -21 45 -23
v -20 45 -23
v -19 45 -23
v -18 45 -23
v 14 45 -23
v 15 45 -23
v 16 45 -23
v 17 45 -23
v -22 45 -24
v -21 45 -24
v -18 45 -24
v -17 45 -24
v 13 45 -24
v 14 45 -24
v 17 45 -24
v 18 45 -24
v -36 46 2
v 32 46 2
v -21 46 -0
v -18 46 -0
v 14 46 -0
v 17 46 -0
v -22 46 -13
v -21 46 -13
v -18 46 -13
v -17 46 -13
v 13 46 -13
v 14 46 -13
v 17 46 -13
v 18 46 -13
v -36 46 -25
v -22 46 -25
v -17 46 -25
v 13 46 -25
v 18 46 -25
v 32 46 -25
v -37 47 3
v 33 47 3
v -36 47 2
v 32 47 2
v -37 47 -25
v -36 47 -25
v 32 47 -25
v 33 47 -25
v -37 50 3
v 33 50 3
v -35 50 1
v 30 50 1
v -37 50 -25
v -35 50 -25
v 30 50 -25
v 33 50 -25

# faces
f 3/2/1 2/2/1 1/2/1
f 4/2/1 2/2/1 3/2/1
f 7/2/1 6/2/1 5/2/1
f 8/2/1 6/2/1 7/2/1
f 12/3/1 10/3/1 9/3/1
f 13/3/1 12/3/1 11/3/1
f 14/3/1 10/3/1 12/3/1
f 14/3/1 12/3/1 13/3/1
f 17/3/1 16/3/1 15/3/1
f 18/3/1 16/3/1 17/3/1
f 23/3/1 20/3/1 19/3/1
f 24/3/1 20/3/1 23/3/1
f 25/3/1 22/3/1 21/3/1
f 26/3/1 22/3/1 25/3/1
f 30/3/1 28/3/1 27/3/1
f 31/3/1 28/3/1 30/3/1
f 32/3/1 30/3/1 29/3/1
f 33/3/1 30/3/1 32/3/1
f 37/3/1 35/3/1 34/3/1
f 38/3/1 37/3/1 36/3/1
f 39/3/1 35/3/1 37/3/1
f 39/3/1 37/3/1 38/3/1
f 42/3/1 41/3/1 40/3/1
f 43/3/1 41/3/1 42/3/1
f 48/3/1 45/3/1 44/3/1
f 49/3/1 45/3/1 48/3/1
f 50/3/1 47/3/1 46/3/1
f 51/3/1 47/3/1 50/3/1
f 55/3/1 53/3/1 52/3/1
f 56/3/1 53/3/1 55/3/1
f 57/3/1 55/3/1 54/3/1
f 58/3/1 55/3/1 57/3/1
f 59/3/2 60/3/2 62/3/2
f 62/3/2 60/3/2 63/3/2
f 61/3/2 62/3/2 64/3/2
f 64/3/2 62/3/2 65/3/2
f 66/3/2 67/3/2 68/3/2
f 68/3/2 67/3/2 69/3/2
f 70/3/2 71/3/2 74/3/2
f 74/3/2 71/3/2 75/3/2
f 72/3/2 73/3/2 76/3/2
f 76/3/2 73/3/2 77/3/2
f 78/3/2 79/3/2 81/3/2
f 80/3/2 81/3/2 82/3/2
f 81/3/2 79/3/2 83/3/2
f 82/3/2 81/3/2 83/3/2
f 84/3/2 85/3/2 87/3/2
f 87/3/2 85/3/2 88/3/2
f 86/3/2 87/3/2 89/3/2
f 89/3/2 87/3/2 90/3/2
f 91/3/2 92/3/2 93/3/2
f 93/3/2 92/3/2 94/3/2
f 95/3/2 96/3/2 99/3/2
f 99/3/2 96/3/2 100/3/2
f 97/3/2 98/3/2 101/3/2
f 101/3/2 98/3/2 102/3/2
f 103/3/2 104/3/2 106/3/2
f 105/3/2 106/3/2 107/3/2
f 106/3/2 104/3/2 108/3/2
f 107/3/2 106/3/2 108/3/2
f 109/2/2 110/2/2 111/2/2
f 111/2/2 110/2/2 112/2/2
f 113/2/2 114/2/2 115/2/2
f 115/2/2 114/2/2 116/2/2
f 119/2/3 118/2/3 117/2/3
f 120/2/3 118/2/3 119/2/3
f 123/2/3 122/2/3 121/2/3
f 124/2/3 122/2/3 123/2/3
f 127/3/3 126/3/3 125/3/3
f 128/3/3 126/3/3 127/3/3
f 131/3/3 130/3/3 129/3/3
f 132/3/3 130/3/3 131/3/3
f 135/3/3 134/3/3 133/3/3
f 136/3/3 134/3/3 135/3/3
f 139/3/3 138/3/3 137/3/3
f 140/3/3 138/3/3 139/3/3
f 143/3/3 142/3/3 141/3/3
f 144/3/3 142/3/3 143/3/3
f 147/3/3 146/3/3 145/3/3
f 148/3/3 146/3/3 147/3/3
f 151/3/3 150/3/3 149/3/3
f 152/3/3 150/3/3 151/3/3
f 155/3/3 154/3/3 153/3/3
f 156/3/3 154/3/3 155/3/3
f 160/3/3 158/3/3 157/3/3
f 161/3/3 158/3/3 160/3/3
f 162/3/3 160/3/3 159/3/3
f 163/3/3 160/3/3 162/3/3
f 165/3/3 164/3/3 163/3/3
f 166/3/3 164/3/3 165/3/3
f 170/3/3 168/3/3 167/3/3
f 171/3/3 168/3/3 170/3/3
f 172/3/3 170/3/3 169/3/3
f 173/3/3 170/3/3 172/3/3
f 175/3/3 174/3/3 173/3/3
f 176/3/3 174/3/3 175/3/3
f 180/3/3 178/3/3 177/3/3
f 181/3/3 178/3/3 180/3/3
f 182/3/3 178/3/3 181/3/3
f 183/3/3 180/3/3 179/3/3
f 183/3/3 181/3/3 180/3/3
f 184/3/3 181/3/3 183/3/3
f 185/3/3 183/3/3 179/3/3
f 187/3/3 185/3/3 179/3/3
f 187/3/3 186/3/3 185/3/3
f 188/3/3 186/3/3 187/3/3
f 189/3/3 186/3/3 188/3/3
f 191/3/3 189/3/3 188/3/3
f 191/3/3 190/3/3 189/3/3
f 192/3/3 190/3/3 191/3/3
f 196/3/3 194/3/3 193/3/3
f 197/3/3 194/3/3 196/3/3
f 198/3/3 194/3/3 197/3/3
f 199/3/3 196/3/3 195/3/3
f 199/3/3 197/3/3 196/3/3
f 200/3/3 197/3/3 199/3/3
f 201/3/3 199/3/3 195/3/3
f 203/3/3 201/3/3 195/3/3
f 203/3/3 202/3/3 201/3/3
f 204/3/3 202/3/3 203/3/3
f 205/3/3 202/3/3 204/3/3
f 207/3/3 205/3/3 204/3/3
f 207/3/3 206/3/3 205/3/3
f 208/3/3 206/3/3 207/3/3
f 209/2/4 210/2/4 212/2/4
f 212/2/4 210/2/4 213/2/4
f 211/2/4 212/2/4 213/2/4
f 213/2/4 210/2/4 214/2/4
f 211/2/4 213/2/4 216/2/4
f 215/3/4 216/3/4 218/3/4
f 217/3/4 218/3/4 219/3/4
f 218/3/4 216/3/4 220/3/4
f 219/3/4 218/3/4 220/3/4
f 220/3/4 216/3/4 221/3/4
f 216/2/4 213/2/4 222/2/4
f 221/3/4 216/3/4 222/3/4
f 222/2/4 213/2/4 224/2/4
f 223/3/4 224/3/4 226/3/4
f 225/3/4 226/3/4 227/3/4
f 226/3/4 224/3/4 228/3/4
f 227/3/4 226/3/4 228/3/4
f 228/3/4 224/3/4 229/3/4
f 224/2/4 213/2/4 230/2/4
f 229/3/4 224/3/4 230/3/4
f 213/1/4 214/1/4 231/1/4
f 230/2/4 213/2/4 231/2/4
f 231/1/4 214/1/4 232/1/4
f 230/2/4 231/2/4 233/2/4
f 231/2/4 232/2/4 233/2/4
f 233/2/4 232/2/4 234/2/4
f 234/2/4 232/2/4 235/2/4
f 235/2/4 232/2/4 236/2/4
f 241/3/5 238/3/5 237/3/5
f 242/3/5 238/3/5 241/3/5
f 243/3/5 240/3/5 239/3/5
f 244/3/5 240/3/5 243/3/5
f 249/3/5 246/3/5 245/3/5
f 250/3/5 246/3/5 249/3/5
f 251/3/5 248/3/5 247/3/5
f 252/3/5 248/3/5 251/3/5
f 261/3/5 254/3/5 253/3/5
f 262/3/5 254/3/5 261/3/5
f 263/3/5 256/3/5 255/3/5
f 264/3/5 256/3/5 263/3/5
f 265/3/5 258/3/5 257/3/5
f 266/3/5 258/3/5 265/3/5
f 267/3/5 260/3/5 259/3/5
f 268/3/5 260/3/5 267/3/5
f 274/3/5 270/3/5 269/3/5
f 275/3/5 270/3/5 274/3/5
f 278/3/5 272/3/5 271/3/5
f 279/3/5 272/3/5 278/3/5
f 281/3/5 274/3/5 273/3/5
f 282/3/5 274/3/5 281/3/5
f 283/3/5 276/3/5 275/3/5
f 284/3/5 276/3/5 283/3/5
f 285/3/5 278/3/5 277/3/5
f 286/3/5 278/3/5 285/3/5
f 287/3/5 280/3/5 279/3/5
f 288/3/5 280/3/5 287/3/5
f 294/3/5 290/3/5 289/3/5
f 295/3/5 290/3/5 294/3/5
f 298/3/5 292/3/5 291/3/5
f 299/3/5 292/3/5 298/3/5
f 301/3/5 296/3/5 295/3/5
f 301/3/5 294/3/5 293/3/5
f 301/3/5 295/3/5 294/3/5
f 302/3/5 296/3/5 301/3/5
f 303/3/5 300/3/5 299/3/5
f 303/3/5 299/3/5 298/3/5
f 303/3/5 298/3/5 297/3/5
f 304/3/5 300/3/5 303/3/5
f 305/3/5 301/3/5 293/3/5
f 306/3/5 301/3/5 305/3/5
f 307/3/5 296/3/5 302/3/5
f 308/3/5 296/3/5 307/3/5
f 309/3/5 303/3/5 297/3/5
f 310/3/5 303/3/5 309/3/5
f 311/3/5 300/3/5 304/3/5
f 312/3/5 300/3/5 311/3/5
f 313/3/5 305/3/5 293/3/5
f 314/3/5 305/3/5 313/3/5
f 315/3/5 296/3/5 308/3/5
f 316/3/5 296/3/5 315/3/5
f 317/3/5 309/3/5 297/3/5
f 318/3/5 309/3/5 317/3/5
f 319/3/5 300/3/5 312/3/5
f 320/3/5 300/3/5 319/3/5
f 323/2/5 322/2/5 321/2/5
f 324/2/5 322/2/5 323/2/5
f 325/2/5 322/2/5 324/2/5
f 326/2/5 322/2/5 325/2/5
f 327/2/5 323/2/5 321/2/5
f 328/2/5 323/2/5 327/2/5
f 329/2/5 325/2/5 324/2/5
f 330/2/5 325/2/5 329/2/5
f 331/2/5 325/2/5 330/2/5
f 332/2/5 325/2/5 331/2/5
f 333/2/5 322/2/5 326/2/5
f 334/2/5 322/2/5 333/2/5
f 335/2/5 327/2/5 321/2/5
f 336/2/5 327/2/5 335/2/5
f 337/2/5 331/2/5 330/2/5
f 338/2/5 331/2/5 337/2/5
f 339/2/5 322/2/5 334/2/5
f 340/2/5 322/2/5 339/2/5
f 343/2/5 342/2/5 341/2/5
f 344/2/5 342/2/5 343/2/5
f 345/2/5 343/2/5 341/2/5
f 346/2/5 343/2/5 345/2/5
f 347/2/5 342/2/5 344/2/5
f 348/2/5 342/2/5 347/2/5
f 349/2/6 350/2/6 351/2/6
f 351/2/6 350/2/6 352/2/6
f 349/2/6 351/2/6 353/2/6
f 351/1/6 352/1/6 354/1/6
f 353/2/6 351/2/6 354/2/6
f 352/2/6 350/2/6 355/2/6
f 354/1/6 352/1/6 355/1/6
f 355/2/6 350/2/6 356/2/6
