# MagicaVoxel @ ephtracy

# material
mtllib Wall2.mtl
usemtl palette

# normals
vn -1 0 0
vn 1 0 0
vn 0 0 1
vn 0 0 -1
vn 0 -1 0
vn 0 1 0

# texcoords
vt 0.783203 0.5
vt 0.814453 0.5
vt 0.908203 0.5

# verts
v -49 0 3
v -49 0 2
v -49 0 -1
v -49 0 -6
v -49 1 4
v -49 1 3
v -49 1 2
v -49 11 4
v -49 11 3
v -49 11 2
v -49 12 4
v -49 12 3
v -49 12 2
v -49 22 4
v -49 22 3
v -49 22 2
v -49 23 4
v -49 23 3
v -49 23 2
v -49 23 -1
v -49 23 -6
v -49 33 4
v -49 33 3
v -49 33 2
v -49 33 -1
v -49 33 -6
v -49 34 4
v -49 34 3
v -49 34 2
v -49 44 4
v -49 44 3
v -49 44 2
v -49 45 4
v -49 45 3
v -49 45 2
v -49 55 4
v -49 55 3
v -49 55 2
v -49 56 3
v -49 56 2
v -49 56 -1
v -49 56 -6
v -41 12 4
v -41 12 3
v -41 22 4
v -41 22 3
v -35 34 4
v -35 34 3
v -35 44 4
v -35 44 3
v -23 23 4
v -23 23 3
v -23 33 4
v -23 33 3
v -14 0 3
v -14 0 2
v -14 1 4
v -14 1 3
v -14 1 2
v -14 11 4
v -14 11 3
v -14 11 2
v -13 45 4
v -13 45 3
v -13 55 4
v -13 55 3
v 1 12 4
v 1 12 3
v 1 22 4
v 1 22 3
v 11 34 4
v 11 34 3
v 11 44 4
v 11 44 3
v 29 22 3
v 29 22 2
v 29 23 4
v 29 23 3
v 29 23 2
v 29 33 4
v 29 33 3
v 29 33 2
v 31 0 3
v 31 0 2
v 31 1 4
v 31 1 3
v 31 1 2
v 31 11 4
v 31 11 3
v 31 11 2
v 34 45 4
v 34 45 3
v 34 55 4
v 34 55 3
v -42 12 4
v -42 12 3
v -42 22 4
v -42 22 3
v -36 34 4
v -36 34 3
v -36 44 4
v -36 44 3
v -24 23 4
v -24 23 3
v -24 33 4
v -24 33 3
v -15 0 3
v -15 0 2
v -15 1 4
v -15 1 3
v -15 1 2
v -15 11 4
v -15 11 3
v -15 11 2
v -14 45 4
v -14 45 3
v -14 55 4
v -14 55 3
v 0 12 4
v 0 12 3
v 0 22 4
v 0 22 3
v 10 34 4
v 10 34 3
v 10 44 4
v 10 44 3
v 28 22 3
v 28 22 2
v 28 23 4
v 28 23 3
v 28 23 2
v 28 33 4
v 28 33 3
v 28 33 2
v 30 0 3
v 30 0 2
v 30 1 4
v 30 1 3
v 30 1 2
v 30 11 4
v 30 11 3
v 30 11 2
v 33 45 4
v 33 45 3
v 33 55 4
v 33 55 3
v 49 0 3
v 49 0 2
v 49 0 -1
v 49 0 -6
v 49 1 4
v 49 1 3
v 49 1 2
v 49 11 4
v 49 11 3
v 49 11 2
v 49 12 4
v 49 12 3
v 49 12 2
v 49 22 4
v 49 22 3
v 49 22 2
v 49 23 4
v 49 23 3
v 49 23 2
v 49 33 4
v 49 33 3
v 49 33 2
v 49 34 4
v 49 34 3
v 49 34 2
v 49 44 4
v 49 44 3
v 49 44 2
v 49 45 4
v 49 45 3
v 49 45 2
v 49 55 4
v 49 55 3
v 49 55 2
v 49 56 3
v 49 56 2
v 49 56 -1
v 49 56 -6
v -49 1 4
v -49 11 4
v -49 12 4
v -49 22 4
v -49 23 4
v -49 33 4
v -49 34 4
v -49 44 4
v -49 45 4
v -49 55 4
v -42 12 4
v -42 22 4
v -41 12 4
v -41 22 4
v -36 34 4
v -36 44 4
v -35 34 4
v -35 44 4
v -24 23 4
v -24 33 4
v -23 23 4
v -23 33 4
v -15 1 4
v -15 11 4
v -14 1 4
v -14 11 4
v -14 45 4
v -14 55 4
v -13 45 4
v -13 55 4
v 0 12 4
v 0 22 4
v 1 12 4
v 1 22 4
v 10 34 4
v 10 44 4
v 11 34 4
v 11 44 4
v 28 23 4
v 28 33 4
v 29 23 4
v 29 33 4
v 30 1 4
v 30 11 4
v 31 1 4
v 31 11 4
v 33 45 4
v 33 55 4
v 34 45 4
v 34 55 4
v 49 1 4
v 49 11 4
v 49 12 4
v 49 22 4
v 49 23 4
v 49 33 4
v 49 34 4
v 49 44 4
v 49 45 4
v 49 55 4
v -49 0 3
v -49 1 3
v -49 11 3
v -49 12 3
v -49 22 3
v -49 23 3
v -49 33 3
v -49 34 3
v -49 44 3
v -49 45 3
v -49 55 3
v -49 56 3
v -42 12 3
v -42 22 3
v -41 12 3
v -41 22 3
v -36 34 3
v -36 44 3
v -35 34 3
v -35 44 3
v -24 23 3
v -24 33 3
v -23 23 3
v -23 33 3
v -15 0 3
v -15 1 3
v -15 11 3
v -14 0 3
v -14 1 3
v -14 11 3
v -14 45 3
v -14 55 3
v -13 45 3
v -13 55 3
v 0 12 3
v 0 22 3
v 1 12 3
v 1 22 3
v 10 34 3
v 10 44 3
v 11 34 3
v 11 44 3
v 28 22 3
v 28 23 3
v 28 33 3
v 29 22 3
v 29 23 3
v 29 33 3
v 30 0 3
v 30 1 3
v 30 11 3
v 31 0 3
v 31 1 3
v 31 11 3
v 33 45 3
v 33 55 3
v 34 45 3
v 34 55 3
v 49 0 3
v 49 1 3
v 49 11 3
v 49 12 3
v 49 22 3
v 49 23 3
v 49 33 3
v 49 34 3
v 49 44 3
v 49 45 3
v 49 55 3
v 49 56 3
v -15 0 2
v -15 1 2
v -15 11 2
v -14 0 2
v -14 1 2
v -14 11 2
v 28 22 2
v 28 23 2
v 28 33 2
v 29 22 2
v 29 23 2
v 29 33 2
v 30 0 2
v 30 1 2
v 30 11 2
v 31 0 2
v 31 1 2
v 31 11 2
v -49 0 -6
v -49 23 -6
v -49 33 -6
v -49 56 -6
v -24 23 -6
v -24 33 -6
v 49 0 -6
v 49 56 -6
v -49 0 3
v -15 0 3
v -14 0 3
v 30 0 3
v 31 0 3
v 49 0 3
v -49 0 2
v -15 0 2
v -14 0 2
v 30 0 2
v 31 0 2
v 49 0 2
v -15 0 1
v -14 0 1
v 30 0 1
v 31 0 1
v -49 0 -1
v 49 0 -1
v -49 0 -6
v 49 0 -6
v -49 1 4
v -15 1 4
v -14 1 4
v 30 1 4
v 31 1 4
v 49 1 4
v -49 1 3
v -15 1 3
v -14 1 3
v 30 1 3
v 31 1 3
v 49 1 3
v -15 11 3
v -14 11 3
v 30 11 3
v 31 11 3
v -15 11 2
v -14 11 2
v 30 11 2
v 31 11 2
v -49 12 4
v -42 12 4
v -41 12 4
v 0 12 4
v 1 12 4
v 49 12 4
v -49 12 3
v -42 12 3
v -41 12 3
v 0 12 3
v 1 12 3
v 49 12 3
v -49 23 4
v -24 23 4
v -23 23 4
v 28 23 4
v 29 23 4
v 49 23 4
v -49 23 3
v -24 23 3
v -23 23 3
v 28 23 3
v 29 23 3
v 49 23 3
v 28 33 3
v 29 33 3
v 28 33 2
v 29 33 2
v -49 34 4
v -36 34 4
v -35 34 4
v 10 34 4
v 11 34 4
v 49 34 4
v -49 34 3
v -36 34 3
v -35 34 3
v 10 34 3
v 11 34 3
v 49 34 3
v -49 45 4
v -14 45 4
v -13 45 4
v 33 45 4
v 34 45 4
v 49 45 4
v -49 45 3
v -14 45 3
v -13 45 3
v 33 45 3
v 34 45 3
v 49 45 3
v -49 11 4
v -15 11 4
v -14 11 4
v 30 11 4
v 31 11 4
v 49 11 4
v -49 11 3
v -15 11 3
v -14 11 3
v 30 11 3
v 31 11 3
v 49 11 3
v -49 22 4
v -42 22 4
v -41 22 4
v 0 22 4
v 1 22 4
v 49 22 4
v -49 22 3
v -42 22 3
v -41 22 3
v 0 22 3
v 1 22 3
v 28 22 3
v 29 22 3
v 49 22 3
v 28 22 2
v 29 22 2
v -49 33 4
v -24 33 4
v -23 33 4
v 28 33 4
v 29 33 4
v 49 33 4
v -49 33 3
v -24 33 3
v -23 33 3
v 28 33 3
v 29 33 3
v 49 33 3
v -49 44 4
v -36 44 4
v -35 44 4
v 10 44 4
v 11 44 4
v 49 44 4
v -49 44 3
v -36 44 3
v -35 44 3
v 10 44 3
v 11 44 3
v 49 44 3
v -49 55 4
v -14 55 4
v -13 55 4
v 33 55 4
v 34 55 4
v 49 55 4
v -49 55 3
v -14 55 3
v -13 55 3
v 33 55 3
v 34 55 3
v 49 55 3
v -49 56 3
v 49 56 3
v -49 56 2
v 49 56 2
v -49 56 -1
v 49 56 -1
v -49 56 -6
v 49 56 -6

# faces
f 6/1/1 2/1/1 1/1/1
f 7/2/1 3/2/1 2/2/1
f 7/1/1 2/1/1 6/1/1
f 8/2/1 6/2/1 5/2/1
f 8/2/1 7/2/1 6/2/1
f 9/2/1 7/2/1 8/2/1
f 10/2/1 3/2/1 7/2/1
f 10/2/1 7/2/1 9/2/1
f 12/1/1 10/1/1 9/1/1
f 13/2/1 3/2/1 10/2/1
f 13/1/1 10/1/1 12/1/1
f 14/2/1 12/2/1 11/2/1
f 14/2/1 13/2/1 12/2/1
f 15/2/1 13/2/1 14/2/1
f 16/2/1 3/2/1 13/2/1
f 16/2/1 13/2/1 15/2/1
f 18/1/1 16/1/1 15/1/1
f 19/2/1 3/2/1 16/2/1
f 19/1/1 16/1/1 18/1/1
f 20/3/1 4/3/1 3/3/1
f 20/2/1 3/2/1 19/2/1
f 21/3/1 4/3/1 20/3/1
f 22/2/1 19/2/1 18/2/1
f 22/2/1 18/2/1 17/2/1
f 22/2/1 21/2/1 20/2/1
f 22/2/1 20/2/1 19/2/1
f 23/2/1 21/2/1 22/2/1
f 24/2/1 21/2/1 23/2/1
f 25/2/1 21/2/1 24/2/1
f 26/2/1 21/2/1 25/2/1
f 28/1/1 24/1/1 23/1/1
f 29/2/1 25/2/1 24/2/1
f 29/1/1 24/1/1 28/1/1
f 30/2/1 28/2/1 27/2/1
f 30/2/1 29/2/1 28/2/1
f 31/2/1 29/2/1 30/2/1
f 32/2/1 25/2/1 29/2/1
f 32/2/1 29/2/1 31/2/1
f 34/1/1 32/1/1 31/1/1
f 35/2/1 25/2/1 32/2/1
f 35/1/1 32/1/1 34/1/1
f 36/2/1 34/2/1 33/2/1
f 36/2/1 35/2/1 34/2/1
f 37/2/1 35/2/1 36/2/1
f 38/2/1 25/2/1 35/2/1
f 38/2/1 35/2/1 37/2/1
f 39/1/1 38/1/1 37/1/1
f 40/2/1 25/2/1 38/2/1
f 40/1/1 38/1/1 39/1/1
f 41/3/1 26/3/1 25/3/1
f 41/2/1 25/2/1 40/2/1
f 42/3/1 26/3/1 41/3/1
f 45/2/1 44/2/1 43/2/1
f 46/2/1 44/2/1 45/2/1
f 49/2/1 48/2/1 47/2/1
f 50/2/1 48/2/1 49/2/1
f 53/2/1 52/2/1 51/2/1
f 54/2/1 52/2/1 53/2/1
f 58/1/1 56/1/1 55/1/1
f 59/1/1 56/1/1 58/1/1
f 60/2/1 58/2/1 57/2/1
f 60/2/1 59/2/1 58/2/1
f 61/2/1 59/2/1 60/2/1
f 62/2/1 59/2/1 61/2/1
f 65/2/1 64/2/1 63/2/1
f 66/2/1 64/2/1 65/2/1
f 69/2/1 68/2/1 67/2/1
f 70/2/1 68/2/1 69/2/1
f 73/2/1 72/2/1 71/2/1
f 74/2/1 72/2/1 73/2/1
f 78/1/1 76/1/1 75/1/1
f 79/1/1 76/1/1 78/1/1
f 80/2/1 78/2/1 77/2/1
f 80/2/1 79/2/1 78/2/1
f 81/2/1 79/2/1 80/2/1
f 82/2/1 79/2/1 81/2/1
f 86/1/1 84/1/1 83/1/1
f 87/1/1 84/1/1 86/1/1
f 88/2/1 86/2/1 85/2/1
f 88/2/1 87/2/1 86/2/1
f 89/2/1 87/2/1 88/2/1
f 90/2/1 87/2/1 89/2/1
f 93/2/1 92/2/1 91/2/1
f 94/2/1 92/2/1 93/2/1
f 95/2/2 96/2/2 97/2/2
f 97/2/2 96/2/2 98/2/2
f 99/2/2 100/2/2 101/2/2
f 101/2/2 100/2/2 102/2/2
f 103/2/2 104/2/2 105/2/2
f 105/2/2 104/2/2 106/2/2
f 107/1/2 108/1/2 110/1/2
f 110/1/2 108/1/2 111/1/2
f 109/2/2 110/2/2 112/2/2
f 110/2/2 111/2/2 112/2/2
f 112/2/2 111/2/2 113/2/2
f 113/2/2 111/2/2 114/2/2
f 115/2/2 116/2/2 117/2/2
f 117/2/2 116/2/2 118/2/2
f 119/2/2 120/2/2 121/2/2
f 121/2/2 120/2/2 122/2/2
f 123/2/2 124/2/2 125/2/2
f 125/2/2 124/2/2 126/2/2
f 127/1/2 128/1/2 130/1/2
f 130/1/2 128/1/2 131/1/2
f 129/2/2 130/2/2 132/2/2
f 130/2/2 131/2/2 132/2/2
f 132/2/2 131/2/2 133/2/2
f 133/2/2 131/2/2 134/2/2
f 135/1/2 136/1/2 138/1/2
f 138/1/2 136/1/2 139/1/2
f 137/2/2 138/2/2 140/2/2
f 138/2/2 139/2/2 140/2/2
f 140/2/2 139/2/2 141/2/2
f 141/2/2 139/2/2 142/2/2
f 143/2/2 144/2/2 145/2/2
f 145/2/2 144/2/2 146/2/2
f 147/1/2 148/1/2 152/1/2
f 148/2/2 149/2/2 153/2/2
f 152/1/2 148/1/2 153/1/2
f 151/2/2 152/2/2 154/2/2
f 152/2/2 153/2/2 154/2/2
f 154/2/2 153/2/2 155/2/2
f 153/2/2 149/2/2 156/2/2
f 155/2/2 153/2/2 156/2/2
f 155/1/2 156/1/2 158/1/2
f 156/2/2 149/2/2 159/2/2
f 158/1/2 156/1/2 159/1/2
f 157/2/2 158/2/2 160/2/2
f 158/2/2 159/2/2 160/2/2
f 160/2/2 159/2/2 161/2/2
f 159/2/2 149/2/2 162/2/2
f 161/2/2 159/2/2 162/2/2
f 161/1/2 162/1/2 164/1/2
f 162/2/2 149/2/2 165/2/2
f 164/1/2 162/1/2 165/1/2
f 163/2/2 164/2/2 166/2/2
f 164/2/2 165/2/2 166/2/2
f 166/2/2 165/2/2 167/2/2
f 165/2/2 149/2/2 168/2/2
f 167/2/2 165/2/2 168/2/2
f 167/1/2 168/1/2 170/1/2
f 168/2/2 149/2/2 171/2/2
f 170/1/2 168/1/2 171/1/2
f 169/2/2 170/2/2 172/2/2
f 170/2/2 171/2/2 172/2/2
f 172/2/2 171/2/2 173/2/2
f 171/2/2 149/2/2 174/2/2
f 173/2/2 171/2/2 174/2/2
f 173/1/2 174/1/2 176/1/2
f 174/2/2 149/2/2 177/2/2
f 176/1/2 174/1/2 177/1/2
f 175/2/2 176/2/2 178/2/2
f 176/2/2 177/2/2 178/2/2
f 178/2/2 177/2/2 179/2/2
f 177/2/2 149/2/2 180/2/2
f 179/2/2 177/2/2 180/2/2
f 179/1/2 180/1/2 181/1/2
f 180/2/2 149/2/2 182/2/2
f 181/1/2 180/1/2 182/1/2
f 149/3/2 150/3/2 183/3/2
f 182/2/2 149/2/2 183/2/2
f 183/3/2 150/3/2 184/3/2
f 195/2/3 188/2/3 187/2/3
f 196/2/3 188/2/3 195/2/3
f 199/2/3 192/2/3 191/2/3
f 200/2/3 192/2/3 199/2/3
f 203/2/3 190/2/3 189/2/3
f 204/2/3 190/2/3 203/2/3
f 207/2/3 186/2/3 185/2/3
f 208/2/3 186/2/3 207/2/3
f 211/2/3 194/2/3 193/2/3
f 212/2/3 194/2/3 211/2/3
f 215/2/3 198/2/3 197/2/3
f 216/2/3 198/2/3 215/2/3
f 219/2/3 202/2/3 201/2/3
f 220/2/3 202/2/3 219/2/3
f 223/2/3 206/2/3 205/2/3
f 224/2/3 206/2/3 223/2/3
f 227/2/3 210/2/3 209/2/3
f 228/2/3 210/2/3 227/2/3
f 231/2/3 214/2/3 213/2/3
f 232/2/3 214/2/3 231/2/3
f 235/2/3 230/2/3 229/2/3
f 236/2/3 230/2/3 235/2/3
f 237/2/3 218/2/3 217/2/3
f 238/2/3 218/2/3 237/2/3
f 239/2/3 226/2/3 225/2/3
f 240/2/3 226/2/3 239/2/3
f 241/2/3 222/2/3 221/2/3
f 242/2/3 222/2/3 241/2/3
f 243/2/3 234/2/3 233/2/3
f 244/2/3 234/2/3 243/2/3
f 257/1/3 248/1/3 247/1/3
f 258/1/3 250/1/3 249/1/3
f 259/1/3 257/1/3 247/1/3
f 259/1/3 258/1/3 257/1/3
f 260/1/3 250/1/3 258/1/3
f 260/1/3 258/1/3 259/1/3
f 261/1/3 252/1/3 251/1/3
f 262/1/3 254/1/3 253/1/3
f 263/1/3 261/1/3 251/1/3
f 263/1/3 262/1/3 261/1/3
f 264/1/3 254/1/3 262/1/3
f 264/1/3 262/1/3 263/1/3
f 265/1/3 250/1/3 260/1/3
f 266/1/3 263/1/3 251/1/3
f 267/1/3 265/1/3 260/1/3
f 267/1/3 266/1/3 265/1/3
f 268/1/3 263/1/3 266/1/3
f 268/1/3 266/1/3 267/1/3
f 269/1/3 246/1/3 245/1/3
f 270/1/3 246/1/3 269/1/3
f 271/1/3 259/1/3 247/1/3
f 274/1/3 259/1/3 271/1/3
f 275/1/3 254/1/3 264/1/3
f 276/1/3 256/1/3 255/1/3
f 277/1/3 275/1/3 264/1/3
f 277/1/3 276/1/3 275/1/3
f 278/1/3 256/1/3 276/1/3
f 278/1/3 276/1/3 277/1/3
f 279/1/3 259/1/3 274/1/3
f 280/1/3 267/1/3 260/1/3
f 281/1/3 279/1/3 274/1/3
f 281/1/3 280/1/3 279/1/3
f 282/1/3 267/1/3 280/1/3
f 282/1/3 280/1/3 281/1/3
f 283/1/3 263/1/3 268/1/3
f 284/1/3 277/1/3 264/1/3
f 285/1/3 283/1/3 268/1/3
f 285/1/3 284/1/3 283/1/3
f 286/1/3 277/1/3 284/1/3
f 286/1/3 284/1/3 285/1/3
f 287/1/3 267/1/3 282/1/3
f 288/1/3 267/1/3 287/1/3
f 289/1/3 285/1/3 268/1/3
f 292/1/3 285/1/3 289/1/3
f 293/1/3 273/1/3 272/1/3
f 294/1/3 273/1/3 293/1/3
f 295/1/3 281/1/3 274/1/3
f 298/1/3 281/1/3 295/1/3
f 299/1/3 277/1/3 286/1/3
f 300/1/3 256/1/3 278/1/3
f 301/1/3 299/1/3 286/1/3
f 301/1/3 300/1/3 299/1/3
f 302/1/3 256/1/3 300/1/3
f 302/1/3 300/1/3 301/1/3
f 303/1/3 297/1/3 296/1/3
f 304/1/3 297/1/3 303/1/3
f 305/1/3 281/1/3 298/1/3
f 306/1/3 281/1/3 305/1/3
f 307/1/3 291/1/3 290/1/3
f 308/1/3 291/1/3 307/1/3
f 309/1/3 285/1/3 292/1/3
f 310/1/3 285/1/3 309/1/3
f 311/1/3 301/1/3 286/1/3
f 312/1/3 301/1/3 311/1/3
f 313/1/3 256/1/3 302/1/3
f 314/1/3 256/1/3 313/1/3
f 318/1/3 316/1/3 315/1/3
f 318/1/3 317/1/3 316/1/3
f 319/1/3 317/1/3 318/1/3
f 320/1/3 317/1/3 319/1/3
f 324/1/3 322/1/3 321/1/3
f 324/1/3 323/1/3 322/1/3
f 325/1/3 323/1/3 324/1/3
f 326/1/3 323/1/3 325/1/3
f 330/1/3 328/1/3 327/1/3
f 330/1/3 329/1/3 328/1/3
f 331/1/3 329/1/3 330/1/3
f 332/1/3 329/1/3 331/1/3
f 333/3/4 334/3/4 337/3/4
f 334/2/4 335/2/4 337/2/4
f 335/3/4 336/3/4 338/3/4
f 337/2/4 335/2/4 338/2/4
f 333/3/4 337/3/4 339/3/4
f 337/3/4 338/3/4 339/3/4
f 338/3/4 336/3/4 340/3/4
f 339/3/4 338/3/4 340/3/4
f 347/1/5 342/1/5 341/1/5
f 348/1/5 342/1/5 347/1/5
f 349/1/5 344/1/5 343/1/5
f 350/1/5 344/1/5 349/1/5
f 351/1/5 346/1/5 345/1/5
f 352/1/5 346/1/5 351/1/5
f 353/2/5 348/2/5 347/2/5
f 353/1/5 349/1/5 348/1/5
f 354/2/5 350/2/5 349/2/5
f 354/1/5 349/1/5 353/1/5
f 355/1/5 351/1/5 350/1/5
f 355/2/5 350/2/5 354/2/5
f 356/2/5 352/2/5 351/2/5
f 356/1/5 351/1/5 355/1/5
f 357/2/5 353/2/5 347/2/5
f 357/2/5 355/2/5 354/2/5
f 357/2/5 356/2/5 355/2/5
f 357/2/5 354/2/5 353/2/5
f 358/2/5 352/2/5 356/2/5
f 358/2/5 356/2/5 357/2/5
f 359/3/5 358/3/5 357/3/5
f 360/3/5 358/3/5 359/3/5
f 367/2/5 362/2/5 361/2/5
f 368/2/5 362/2/5 367/2/5
f 369/2/5 364/2/5 363/2/5
f 370/2/5 364/2/5 369/2/5
f 371/2/5 366/2/5 365/2/5
f 372/2/5 366/2/5 371/2/5
f 377/1/5 374/1/5 373/1/5
f 378/1/5 374/1/5 377/1/5
f 379/1/5 376/1/5 375/1/5
f 380/1/5 376/1/5 379/1/5
f 387/2/5 382/2/5 381/2/5
f 388/2/5 382/2/5 387/2/5
f 389/2/5 384/2/5 383/2/5
f 390/2/5 384/2/5 389/2/5
f 391/2/5 386/2/5 385/2/5
f 392/2/5 386/2/5 391/2/5
f 399/2/5 394/2/5 393/2/5
f 400/2/5 394/2/5 399/2/5
f 401/2/5 396/2/5 395/2/5
f 402/2/5 396/2/5 401/2/5
f 403/2/5 398/2/5 397/2/5
f 404/2/5 398/2/5 403/2/5
f 407/1/5 406/1/5 405/1/5
f 408/1/5 406/1/5 407/1/5
f 415/2/5 410/2/5 409/2/5
f 416/2/5 410/2/5 415/2/5
f 417/2/5 412/2/5 411/2/5
f 418/2/5 412/2/5 417/2/5
f 419/2/5 414/2/5 413/2/5
f 420/2/5 414/2/5 419/2/5
f 427/2/5 422/2/5 421/2/5
f 428/2/5 422/2/5 427/2/5
f 429/2/5 424/2/5 423/2/5
f 430/2/5 424/2/5 429/2/5
f 431/2/5 426/2/5 425/2/5
f 432/2/5 426/2/5 431/2/5
f 433/2/6 434/2/6 439/2/6
f 439/2/6 434/2/6 440/2/6
f 435/2/6 436/2/6 441/2/6
f 441/2/6 436/2/6 442/2/6
f 437/2/6 438/2/6 443/2/6
f 443/2/6 438/2/6 444/2/6
f 445/2/6 446/2/6 451/2/6
f 451/2/6 446/2/6 452/2/6
f 447/2/6 448/2/6 453/2/6
f 453/2/6 448/2/6 454/2/6
f 449/2/6 450/2/6 455/2/6
f 455/2/6 450/2/6 456/2/6
f 456/2/6 450/2/6 457/2/6
f 457/2/6 450/2/6 458/2/6
f 456/2/6 457/2/6 459/2/6
f 459/2/6 457/2/6 460/2/6
f 461/2/6 462/2/6 467/2/6
f 467/2/6 462/2/6 468/2/6
f 463/2/6 464/2/6 469/2/6
f 469/2/6 464/2/6 470/2/6
f 465/2/6 466/2/6 471/2/6
f 471/2/6 466/2/6 472/2/6
f 473/2/6 474/2/6 479/2/6
f 479/2/6 474/2/6 480/2/6
f 475/2/6 476/2/6 481/2/6
f 481/2/6 476/2/6 482/2/6
f 477/2/6 478/2/6 483/2/6
f 483/2/6 478/2/6 484/2/6
f 485/2/6 486/2/6 491/2/6
f 491/2/6 486/2/6 492/2/6
f 487/2/6 488/2/6 493/2/6
f 493/2/6 488/2/6 494/2/6
f 489/2/6 490/2/6 495/2/6
f 495/2/6 490/2/6 496/2/6
f 497/1/6 498/1/6 499/1/6
f 499/1/6 498/1/6 500/1/6
f 499/2/6 500/2/6 501/2/6
f 501/2/6 500/2/6 502/2/6
f 501/3/6 502/3/6 503/3/6
f 503/3/6 502/3/6 504/3/6
